<svg width="86" height="78" viewBox="0 0 86 78" fill="none" xmlns="http://www.w3.org/2000/svg">
<path d="M25.3553 69.1614C25.3028 69.1614 25.2503 69.1548 25.1978 69.1449C24.8206 69.0595 24.5845 68.6816 24.6698 68.3037L24.9814 66.9334C25.4799 64.4688 25.8899 62.852 26.641 61.3831C27.3659 59.9635 28.3893 58.6983 30.2884 56.868C30.5672 56.5985 31.01 56.6084 31.279 56.8877C31.5479 57.167 31.5381 57.6106 31.2593 57.8801C27.8546 61.1531 27.2905 62.5727 26.3524 67.2193C26.3524 67.2258 26.3491 67.2291 26.3491 67.2357L26.0375 68.6126C25.9621 68.9412 25.6734 69.1614 25.3553 69.1614Z" fill="#131314"/>
<path d="M7.85224 62.9145C7.75384 62.9145 7.65216 62.8915 7.55376 62.8487C7.2028 62.6844 7.0552 62.2671 7.2192 61.9155C7.57672 61.1531 7.92112 60.4072 8.24584 59.6941C9.24952 57.4858 10.3516 54.5611 9.99408 51.5083L9.384 46.3129C9.38072 46.2735 9.37744 46.2373 9.38072 46.1979C9.50864 43.4211 10.0334 40.6805 10.9387 38.0549C10.9387 38.0516 10.942 38.0516 10.942 38.0483L15.0814 26.4811C15.2126 26.1164 15.6127 25.9258 15.9768 26.0572C16.3409 26.1887 16.5311 26.5896 16.3999 26.9543L12.2638 38.5182C11.4078 40.9993 10.9092 43.5854 10.7846 46.2078L11.3881 51.3473C11.7882 54.7419 10.6009 57.9031 9.52504 60.2757C9.19704 60.9954 8.84936 61.7479 8.48856 62.5168C8.3672 62.7666 8.11464 62.9145 7.85224 62.9145Z" fill="#131314"/>
<path d="M61.135 69.162C60.8169 69.162 60.5282 68.9418 60.4528 68.6165L60.1412 67.2396C60.1412 67.233 60.1379 67.2298 60.1379 67.2232C59.1998 62.5766 58.6357 61.157 55.231 57.884C54.9522 57.6145 54.9424 57.1709 55.2113 56.8916C55.4803 56.6123 55.9231 56.6024 56.2019 56.8719C58.1043 58.699 59.1277 59.9674 59.8493 61.387C60.6004 62.8592 61.0104 64.4727 61.5089 66.9373L61.8205 68.3076C61.9058 68.6855 61.6697 69.0601 61.2925 69.1489C61.24 69.1587 61.1875 69.162 61.135 69.162Z" fill="#131314"/>
<path d="M78.6374 62.9152C78.375 62.9152 78.1224 62.7673 78.0044 62.511C77.6436 61.7453 77.2959 60.9895 76.9679 60.2698C75.8921 57.8972 74.7047 54.736 75.1048 51.3414L75.7084 46.2019C75.5837 43.5828 75.0852 41 74.2324 38.5222L70.5424 29.0877C70.4013 28.7262 70.5784 28.3188 70.9392 28.1775C71.3 28.0362 71.7068 28.2136 71.8478 28.5751L75.5411 38.0227C75.5444 38.0326 75.5476 38.0391 75.5509 38.049C76.4595 40.6746 76.981 43.4153 77.1089 46.192C77.1122 46.2315 77.1089 46.2676 77.1056 46.307L76.4956 51.5024C76.138 54.5552 77.2401 57.4799 78.2438 59.6882C78.5685 60.4013 78.9129 61.1505 79.2704 61.9096C79.4344 62.2612 79.2836 62.6786 78.9359 62.8429C78.8408 62.8954 78.7391 62.9152 78.6374 62.9152Z" fill="#131314"/>
<path d="M68.6693 57.5985H18.4033C16.6223 57.5985 15.1758 56.1494 15.1758 54.365V4.00504C15.1758 2.22067 16.6223 0.771484 18.4033 0.771484H68.6693C70.4503 0.771484 71.8968 2.22067 71.8968 4.00504V54.365C71.8968 56.1494 70.4471 57.5985 68.6693 57.5985ZM18.4033 2.17466C17.3963 2.17466 16.5763 2.9962 16.5763 4.00504V54.365C16.5763 55.3738 17.3963 56.1954 18.4033 56.1954H68.6693C69.6763 56.1954 70.4963 55.3738 70.4963 54.365V4.00504C70.4963 2.9962 69.6763 2.17466 68.6693 2.17466H18.4033Z" fill="#131314"/>
<path d="M41.0854 56.8971C40.6983 56.8971 40.3867 56.5816 40.3867 56.1971V37.9558C40.3867 37.568 40.7016 37.2559 41.0854 37.2559C41.4691 37.2559 41.784 37.5713 41.784 37.9558V56.1971C41.784 56.5816 41.4724 56.8971 41.0854 56.8971Z" fill="#131314"/>
<path d="M41.0854 26.0286C40.6983 26.0286 40.3867 25.7131 40.3867 25.3286V2.17455C40.3867 1.78679 40.7016 1.47461 41.0854 1.47461C41.4691 1.47461 41.784 1.79008 41.784 2.17455V25.3286C41.784 25.7164 41.4724 26.0286 41.0854 26.0286Z" fill="#131314"/>
<path d="M45.2879 56.8971C44.9008 56.8971 44.5859 56.5816 44.5859 56.1971V37.9558C44.5859 37.568 44.9008 37.2559 45.2879 37.2559C45.6749 37.2559 45.9898 37.5713 45.9898 37.9558V56.1971C45.9865 56.5816 45.6749 56.8971 45.2879 56.8971Z" fill="#131314"/>
<path d="M45.2879 26.0286C44.9008 26.0286 44.5859 25.7131 44.5859 25.3286V2.17455C44.5859 1.78679 44.9008 1.47461 45.2879 1.47461C45.6749 1.47461 45.9898 1.79008 45.9898 2.17455V25.3286C45.9865 25.7164 45.6749 26.0286 45.2879 26.0286Z" fill="#131314"/>
<path d="M22.1792 27.4311H15.8783C15.4913 27.4311 15.1797 27.1157 15.1797 26.7312C15.1797 26.3467 15.4946 26.0312 15.8783 26.0312H22.1792C22.5663 26.0312 22.8779 26.3467 22.8779 26.7312C22.8779 27.1157 22.5663 27.4311 22.1792 27.4311Z" fill="#131314"/>
<path d="M70.4977 27.4311H63.4949C63.1079 27.4311 62.793 27.1157 62.793 26.7312C62.793 26.3467 63.1079 26.0312 63.4949 26.0312H70.4977C70.8847 26.0312 71.1996 26.3467 71.1996 26.7312C71.1996 27.1157 70.8847 27.4311 70.4977 27.4311Z" fill="#131314"/>
<path d="M22.2409 32.3433H15.8744C15.4874 32.3433 15.1758 32.0278 15.1758 31.6433C15.1758 31.2588 15.4907 30.9434 15.8744 30.9434H22.2409C22.6279 30.9434 22.9395 31.2588 22.9395 31.6433C22.9395 32.0278 22.6279 32.3433 22.2409 32.3433Z" fill="#131314"/>
<path d="M70.4977 32.3433H63.4949C63.1079 32.3433 62.793 32.0278 62.793 31.6433C62.793 31.2588 63.1079 30.9434 63.4949 30.9434H70.4977C70.8847 30.9434 71.1996 31.2588 71.1996 31.6433C71.1996 32.0278 70.8847 32.3433 70.4977 32.3433Z" fill="#131314"/>
<path d="M43.1843 31.6415C41.7542 31.6415 40.3996 31.3162 39.3696 30.728C38.2151 30.0675 37.582 29.1473 37.582 28.1352C37.582 27.1231 38.2184 26.203 39.3696 25.5425C40.3996 24.9542 41.7542 24.6289 43.1843 24.6289C44.6144 24.6289 45.969 24.9542 46.9989 25.5425C48.1535 26.203 48.7865 27.1231 48.7865 28.1352C48.7865 29.1473 48.1502 30.0675 46.9989 30.728C45.969 31.3162 44.6144 31.6415 43.1843 31.6415ZM43.1843 26.0288C40.7079 26.0288 38.9826 27.1395 38.9826 28.1319C38.9826 29.1243 40.7079 30.235 43.1843 30.235C45.6607 30.235 47.3859 29.1243 47.3859 28.1319C47.3859 27.1395 45.6607 26.0288 43.1843 26.0288Z" fill="#131314"/>
<path d="M57.6617 37.2238C56.9795 37.2238 56.2907 37.1153 55.6183 36.8919C52.5613 35.8798 49.7438 34.4536 47.9168 33.4316C45.939 32.3242 44.6959 31.4698 44.6434 31.4336C44.3252 31.2135 44.2465 30.7764 44.4663 30.4576C44.686 30.1389 45.1223 30.06 45.4404 30.2802C45.4896 30.3131 50.4096 33.6945 56.0578 35.561C57.6223 36.0769 59.2919 35.8173 60.6367 34.8413C62.0077 33.8489 62.7916 32.311 62.7916 30.6219V26.2875C62.7916 24.5985 62.0044 23.0606 60.6367 22.0682C59.2919 21.0922 57.6223 20.8326 56.0578 21.3485C50.4064 23.2183 46.3588 26.0838 46.3195 26.1134C46.0046 26.3368 45.5683 26.2645 45.342 25.9491C45.119 25.6336 45.1911 25.1965 45.506 24.9698C45.6766 24.8482 49.77 21.9531 55.6183 20.0176C57.6158 19.3571 59.7412 19.6923 61.4567 20.9312C62.2799 21.5292 62.9655 22.3146 63.4378 23.2117C63.9396 24.1647 64.1955 25.1998 64.1955 26.2908V30.6187C64.1955 31.7097 63.9396 32.7448 63.4378 33.6978C62.9655 34.5916 62.2832 35.3803 61.4567 35.9783C60.3218 36.7999 59.0032 37.2238 57.6617 37.2238Z" fill="#131314"/>
<path d="M28.0103 37.2246C26.6688 37.2246 25.3502 36.8007 24.2154 35.9759C23.3921 35.3778 22.7066 34.5924 22.2342 33.6953C21.7324 32.7423 21.4766 31.7072 21.4766 30.6162V26.2818C21.4766 25.1908 21.7324 24.1557 22.2342 23.2027C22.7066 22.3089 23.3888 21.5202 24.2154 20.9221C25.9308 19.68 28.0562 19.3481 30.0538 20.0086C35.9053 21.9441 39.9954 24.8392 40.166 24.9608C40.4809 25.1842 40.553 25.6246 40.33 25.94C40.107 26.2555 39.6674 26.3278 39.3526 26.1044C39.3132 26.0748 35.2526 23.206 29.6142 21.3395C28.0497 20.8235 26.3802 21.0831 25.0354 22.0591C23.6643 23.0515 22.8804 24.5894 22.8804 26.2785V30.6195C22.8804 32.3086 23.6676 33.8465 25.0354 34.8389C26.3802 35.8149 28.0497 36.0745 29.6142 35.5586C35.2624 33.6887 40.3562 30.1989 40.4054 30.166C40.7236 29.9458 41.1598 30.028 41.3796 30.3467C41.5994 30.6655 41.5174 31.1026 41.1992 31.3227C41.1467 31.3589 39.861 32.2428 37.8405 33.3766C35.9742 34.4215 33.1074 35.8806 30.0505 36.8927C29.3781 37.1162 28.6893 37.2246 28.0103 37.2246Z" fill="#131314"/>
<path d="M32.3374 48.8632C32.0487 48.8632 31.783 48.6824 31.6814 48.4031C31.6584 48.344 31.1369 46.9342 30.9598 45.0776C30.8548 43.9734 30.8942 42.9383 31.0746 41.9985C31.3074 40.7924 31.7765 39.7442 32.4653 38.8766C35.0237 35.6759 35.5386 33.8127 35.5419 33.793V33.7963L36.8998 34.1413C36.8769 34.2268 36.3357 36.2707 33.5575 39.7507C32.239 41.4004 32.1734 43.6349 32.3964 45.347C32.8162 44.4631 33.3902 43.6087 34.0987 42.8068C34.9876 41.8046 36.0962 40.8845 37.3886 40.0761C41.9051 37.25 41.7313 32.38 41.6493 31.4335C41.6165 31.0491 41.9018 30.7073 42.2889 30.6744C42.6759 30.6416 43.0138 30.9275 43.0466 31.3152C43.099 31.9363 43.1581 33.586 42.5775 35.4952C42.243 36.5895 41.7477 37.6016 41.1048 38.4987C40.3274 39.5864 39.327 40.5197 38.1331 41.2656C35.5157 42.9054 34.266 44.6931 33.6822 45.9057C33.0655 47.1807 33.0327 48.1041 33.0327 48.1534C33.036 48.4918 32.7966 48.781 32.462 48.8435C32.4194 48.8599 32.3767 48.8632 32.3374 48.8632Z" fill="#131314"/>
<path d="M53.8606 48.8625C53.818 48.8625 53.7753 48.8592 53.7327 48.8493C53.3981 48.7869 53.1587 48.4977 53.162 48.1592C53.162 48.1099 53.1292 47.1865 52.5125 45.9115C51.9287 44.6989 50.679 42.9113 48.0616 41.2715C46.8677 40.5223 45.8673 39.5923 45.0866 38.5013C44.4437 37.6009 43.9485 36.5888 43.6139 35.4945C43.0333 33.5852 43.0924 31.9356 43.1448 31.3178C43.1776 30.9333 43.5188 30.6474 43.9025 30.6803C44.2863 30.7132 44.5749 31.0516 44.5388 31.4394C44.4568 32.3858 44.283 37.2559 48.7996 40.0852C50.0952 40.8969 51.2005 41.8137 52.0894 42.816C52.7979 43.6145 53.3686 44.4656 53.7885 45.3496C54.0082 43.6342 53.9426 41.4029 52.6306 39.7566C49.8525 36.2799 49.3113 34.2326 49.2883 34.1472L50.6462 33.8021V33.7988C50.6495 33.8186 51.1677 35.6785 53.7261 38.8825C54.4182 39.7467 54.884 40.7983 55.1168 42.0043C55.2972 42.9441 55.3366 43.9793 55.2317 45.0834C55.0545 46.9401 54.533 48.3498 54.51 48.409C54.4149 48.6817 54.1493 48.8625 53.8606 48.8625Z" fill="#131314"/>
<path d="M37.9852 28.0259C37.9295 28.0259 37.8704 28.0193 37.8114 28.0029L34.1968 27.0795C33.8229 26.9842 33.5966 26.603 33.6917 26.2251C33.7868 25.8505 34.1673 25.6237 34.5445 25.719L38.1591 26.6424C38.533 26.7377 38.7593 27.1189 38.6642 27.4968C38.5822 27.8123 38.2968 28.0259 37.9852 28.0259Z" fill="#131314"/>
<path d="M34.3706 30.7446C34.059 30.7446 33.7736 30.5343 33.6916 30.2156C33.5965 29.8409 33.8228 29.4598 34.1968 29.3612L37.8113 28.4378C38.1852 28.3425 38.5657 28.5692 38.6641 28.9438C38.7625 29.3185 38.5329 29.6996 38.159 29.7982L34.5444 30.7216C34.4854 30.7381 34.4264 30.7446 34.3706 30.7446Z" fill="#131314"/>
<path d="M47.9429 28.0259C47.6313 28.0259 47.3459 27.8156 47.2639 27.4968C47.1688 27.1222 47.3951 26.741 47.769 26.6424L51.3836 25.719C51.7575 25.6237 52.1413 25.8505 52.2364 26.2251C52.3315 26.5997 52.1052 26.9809 51.7313 27.0795L48.1167 28.0029C48.0577 28.0193 47.9986 28.0259 47.9429 28.0259Z" fill="#131314"/>
<path d="M51.5574 30.7448C51.5017 30.7448 51.4426 30.7383 51.3836 30.7218L47.769 29.7984C47.3951 29.7031 47.1688 29.3219 47.2639 28.944C47.359 28.5661 47.7395 28.3427 48.1167 28.438L51.7313 29.3614C52.1052 29.4567 52.3315 29.8379 52.2364 30.2158C52.1544 30.5345 51.869 30.7448 51.5574 30.7448Z" fill="#131314"/>
<path d="M27.3407 77.4637C27.2653 77.4637 27.1899 77.4506 27.1177 77.4276C26.7503 77.3027 26.5535 76.9051 26.6782 76.537L29.6138 67.8485C28.925 67.3457 27.9508 66.7279 27.1407 66.2153C26.7799 65.9886 26.442 65.7717 26.1763 65.6008C25.8516 65.3872 25.7631 64.9534 25.973 64.6281C26.1862 64.3028 26.6191 64.214 26.9439 64.4244C27.1964 64.592 27.531 64.8023 27.8885 65.029C28.8955 65.6665 30.1484 66.4585 30.8766 67.05C31.1062 67.234 31.1947 67.5429 31.0996 67.8222L28.0033 76.9905C27.9049 77.2797 27.6327 77.4637 27.3407 77.4637Z" fill="#131314"/>
<path d="M8.14367 60.2444C8.10103 60.2444 8.05511 60.2411 8.00919 60.2313C6.93663 60.0243 4.76199 59.9158 4.73903 59.9158C4.35199 59.8961 4.05351 59.5675 4.07319 59.1797C4.09287 58.792 4.42087 58.4929 4.80791 58.5126C4.89975 58.5159 7.10391 58.6244 8.27487 58.8511C8.65535 58.9234 8.90463 59.2914 8.82919 59.6726C8.76687 60.0111 8.47495 60.2444 8.14367 60.2444Z" fill="#131314"/>
<path d="M1.68241 68.6832C1.60697 68.6832 1.53153 68.67 1.45937 68.647C1.09201 68.5221 0.895211 68.1245 1.01985 67.7565L3.87017 59.3177C3.99481 58.9496 4.39169 58.7525 4.75905 58.8773C5.12641 59.0022 5.32321 59.3998 5.19857 59.7679L2.34825 68.2067C2.24657 68.4959 1.97433 68.6832 1.68241 68.6832Z" fill="#131314"/>
<path d="M23.1535 73.2004C22.8911 73.2004 22.6254 73.1971 22.3597 73.1872C19.9785 73.1051 17.5644 72.6549 15.1864 71.8465C12.8576 71.0578 10.3484 69.8485 8.12453 68.4453C5.73669 66.937 3.86709 65.3367 2.71909 63.8152C2.48621 63.5063 2.54853 63.066 2.85685 62.8326C3.16517 62.5993 3.60469 62.6618 3.83757 62.9707C5.91709 65.731 10.8797 68.9087 15.6357 70.5189C20.0244 72.0075 24.682 72.2014 28.4081 71.048C28.7787 70.933 29.169 71.14 29.2838 71.5113C29.3986 71.8826 29.192 72.2737 28.8213 72.3887C27.0731 72.9276 25.1707 73.2004 23.1535 73.2004Z" fill="#131314"/>
<path d="M24.4915 69.2394C24.2291 69.2394 23.9634 69.2362 23.6977 69.2263C21.3165 69.1441 18.9024 68.6939 16.5244 67.8856C14.1956 67.0969 11.6864 65.8876 9.46253 64.4844C7.07469 62.9761 5.20509 61.3757 4.05709 59.8542C3.82421 59.5454 3.88653 59.105 4.19485 58.8717C4.50317 58.6384 4.94269 58.7008 5.17557 59.0097C7.25509 61.7701 12.2177 64.9478 16.9737 66.558C21.3624 68.0466 26.02 68.2405 29.746 67.087C30.1167 66.972 30.507 67.179 30.6218 67.5504C30.7366 67.9217 30.53 68.3128 30.1593 68.4278C28.4111 68.9667 26.5087 69.2394 24.4915 69.2394Z" fill="#131314"/>
<path d="M59.5383 77.5355C59.2464 77.5355 58.9741 77.3515 58.8757 77.059L55.7794 67.8907C55.6843 67.6114 55.7761 67.3025 56.0024 67.1184C56.9602 66.3462 58.879 64.943 59.8794 64.2891C60.2041 64.0755 60.6371 64.1675 60.8503 64.4928C61.0635 64.8182 60.9716 65.2519 60.6469 65.4655C59.8138 66.0143 58.2492 67.1447 57.262 67.9137L60.2008 76.6121C60.3255 76.9801 60.1287 77.3777 59.7613 77.5026C59.6892 77.5223 59.6137 77.5355 59.5383 77.5355Z" fill="#131314"/>
<path d="M78.0768 60.3581C77.7488 60.3581 77.4536 60.1248 77.3913 59.7896C77.3192 59.4084 77.5684 59.0404 77.9456 58.9681C79.1133 58.7413 81.9505 58.5934 82.0686 58.5869C82.4524 58.5672 82.7836 58.8629 82.8033 59.2507C82.823 59.6384 82.5278 59.967 82.1408 59.9868C82.1112 59.9868 79.2806 60.1379 78.208 60.3449C78.1654 60.3548 78.1195 60.3581 78.0768 60.3581Z" fill="#131314"/>
<path d="M85.2007 68.7515C84.9088 68.7515 84.6365 68.5675 84.5381 68.275L81.6878 59.8362C81.5632 59.4682 81.76 59.0706 82.1273 58.9457C82.4947 58.8208 82.8916 59.018 83.0162 59.386L85.8665 67.8248C85.9912 68.1929 85.7944 68.5905 85.427 68.7154C85.3516 68.7384 85.2761 68.7515 85.2007 68.7515Z" fill="#131314"/>
<path d="M63.7304 73.2726C61.7132 73.2726 59.8108 72.9999 58.0625 72.461C57.6919 72.346 57.4853 71.9549 57.6001 71.5836C57.7149 71.2122 58.1052 71.0052 58.4758 71.1202C62.2052 72.2737 66.8595 72.0798 71.2481 70.5912C76.0041 68.9777 80.9635 65.8033 83.0463 63.0429C83.2792 62.734 83.7187 62.6716 84.027 62.9049C84.3353 63.1382 84.3977 63.5786 84.1648 63.8875C83.0168 65.4089 81.1505 67.0126 78.7593 68.5176C76.5355 69.9208 74.0263 71.1301 71.6975 71.9188C69.3195 72.7239 66.9054 73.1773 64.5241 73.2595C64.2585 73.2661 63.9928 73.2726 63.7304 73.2726Z" fill="#131314"/>
<path d="M62.3925 69.3058C60.3753 69.3058 58.4729 69.0331 56.7247 68.4942C56.354 68.3792 56.1474 67.9881 56.2622 67.6168C56.377 67.2454 56.7673 67.0384 57.1379 67.1534C60.8673 68.3069 65.5216 68.113 69.9103 66.6244C74.6663 65.0109 79.6256 61.8365 81.7084 59.0761C81.9413 58.7672 82.3808 58.7048 82.6891 58.9381C82.9975 59.1714 83.0598 59.6118 82.8269 59.9207C81.6789 61.4421 79.8126 63.0458 77.4215 64.5508C75.1976 65.954 72.6884 67.1633 70.3596 67.952C67.9816 68.7571 65.5675 69.2105 63.1863 69.2927C62.9206 69.3026 62.6549 69.3058 62.3925 69.3058Z" fill="#131314"/>
</svg>
