<svg width="18" height="18" viewBox="0 0 18 18" fill="none" xmlns="http://www.w3.org/2000/svg">
<path d="M9.77034 1.50098C10.6144 1.50237 11.0421 1.50684 11.4117 1.51784L11.5573 1.5226C11.7254 1.52858 11.8913 1.53608 12.0914 1.54545C12.8894 1.58233 13.4339 1.70858 13.912 1.8942C14.4063 2.08483 14.8238 2.34233 15.2407 2.75921C15.6569 3.17608 15.9145 3.59483 16.1057 4.08795C16.2907 4.56545 16.417 5.11046 16.4545 5.90858C16.4634 6.10858 16.4706 6.27448 16.4765 6.44266L16.4813 6.58823C16.4922 6.95778 16.4972 7.38557 16.4988 8.22965L16.4994 8.78885C16.4995 8.85718 16.4995 8.92768 16.4995 9.00043L16.4994 9.212L16.499 9.77128C16.4975 10.6153 16.4931 11.0431 16.4821 11.4127L16.4773 11.5582C16.4714 11.7265 16.4639 11.8924 16.4545 12.0923C16.4176 12.8905 16.2907 13.4348 16.1057 13.9129C15.9151 14.4073 15.6569 14.8249 15.2407 15.2417C14.8238 15.658 14.4044 15.9154 13.912 16.1067C13.4339 16.2917 12.8894 16.4179 12.0914 16.4554C11.8913 16.4644 11.7254 16.4716 11.5573 16.4775L11.4117 16.4822C11.0421 16.4932 10.6144 16.4982 9.77034 16.4998L9.21106 16.5004C9.14274 16.5004 9.07224 16.5004 8.99949 16.5004H8.78792L8.22864 16.4999C7.38459 16.4986 6.9568 16.4941 6.58724 16.483L6.44168 16.4783C6.27349 16.4723 6.10759 16.4648 5.9076 16.4554C5.10947 16.4186 4.56572 16.2917 4.08698 16.1067C3.59322 15.9161 3.1751 15.658 2.75822 15.2417C2.34135 14.8249 2.08448 14.4055 1.89323 13.9129C1.7076 13.4348 1.58198 12.8905 1.54448 12.0923C1.53557 11.8924 1.5283 11.7265 1.52241 11.5582L1.51769 11.4127C1.50672 11.0431 1.50172 10.6153 1.5001 9.77128L1.5 8.22965C1.50139 7.38557 1.50586 6.95778 1.51686 6.58823L1.52162 6.44266C1.5276 6.27448 1.5351 6.10858 1.54448 5.90858C1.58135 5.10983 1.7076 4.56608 1.89323 4.08795C2.08385 3.5942 2.34135 3.17608 2.75822 2.75921C3.1751 2.34233 3.59385 2.08545 4.08698 1.8942C4.5651 1.70858 5.10885 1.58295 5.9076 1.54545C6.10759 1.53655 6.27349 1.52928 6.44168 1.52339L6.58724 1.51868C6.9568 1.5077 7.38459 1.50269 8.22864 1.50107L9.77034 1.50098ZM8.99949 5.25045C6.9273 5.25045 5.24948 6.9301 5.24948 9.00043C5.24948 11.0726 6.92912 12.7504 8.99949 12.7504C11.0717 12.7504 12.7495 11.0708 12.7495 9.00043C12.7495 6.92828 11.0698 5.25045 8.99949 5.25045ZM8.99949 6.75045C10.2422 6.75045 11.2495 7.75745 11.2495 9.00043C11.2495 10.2431 10.2425 11.2504 8.99949 11.2504C7.75682 11.2504 6.74948 10.2435 6.74948 9.00043C6.74948 7.75775 7.75644 6.75045 8.99949 6.75045ZM12.937 4.12545C12.42 4.12545 11.9995 4.54538 11.9995 5.06231C11.9995 5.57925 12.4194 5.99983 12.937 5.99983C13.4539 5.99983 13.8745 5.5799 13.8745 5.06231C13.8745 4.54538 13.4532 4.12481 12.937 4.12545Z" fill="#131314"/>
</svg>
