<svg width="185" height="39" viewBox="0 0 185 39" fill="none" xmlns="http://www.w3.org/2000/svg">
<path d="M141.089 29.9893C141.351 29.9893 141.593 30.0318 141.812 30.1182H141.811C142.034 30.1985 142.227 30.3161 142.389 30.4717C142.551 30.6224 142.675 30.8076 142.762 31.0264H142.761C142.853 31.2454 142.899 31.4889 142.899 31.7568C142.899 31.8406 142.873 31.9166 142.821 31.9814L142.819 31.9834C142.762 32.048 142.675 32.0752 142.572 32.0752H139.951C139.955 32.3619 139.995 32.607 140.071 32.8115C140.153 33.024 140.258 33.1972 140.387 33.3311L140.487 33.4219C140.591 33.5066 140.706 33.5727 140.831 33.6211H140.83C140.997 33.6803 141.167 33.7075 141.339 33.7021H141.34C141.579 33.6967 141.798 33.6474 141.998 33.5557L142.139 33.4736C142.273 33.3806 142.386 33.2554 142.479 33.0977L142.512 33.0527C142.548 33.0129 142.594 32.9893 142.648 32.9893C142.708 32.9894 142.754 33.0216 142.783 33.0732C142.817 33.1318 142.809 33.1961 142.775 33.2568C142.641 33.5012 142.432 33.6945 142.151 33.8379L142.15 33.8389C141.869 33.9766 141.554 34.0449 141.207 34.0449C140.968 34.0449 140.731 34.0107 140.497 33.9424L140.496 33.9414C140.261 33.8668 140.048 33.7495 139.858 33.5889C139.668 33.4274 139.514 33.22 139.394 32.9688L139.393 32.9678C139.277 32.7087 139.218 32.3966 139.212 32.0342C139.206 31.7334 139.246 31.4594 139.332 31.2129L139.403 31.0312C139.482 30.8562 139.581 30.7014 139.702 30.5674C139.864 30.3826 140.063 30.2413 140.299 30.1436C140.535 30.0401 140.798 29.9893 141.089 29.9893ZM141.156 30.332C140.761 30.3432 140.476 30.4805 140.292 30.7383C140.111 30.9915 140.004 31.3247 139.971 31.7402H141.852C142.009 31.7402 142.107 31.7072 142.16 31.6543C142.215 31.5942 142.246 31.5029 142.246 31.3721C142.246 31.2385 142.222 31.1099 142.174 30.9873L142.173 30.9854C142.131 30.8587 142.063 30.7475 141.968 30.6523L141.967 30.6514C141.877 30.5565 141.763 30.4791 141.623 30.4199H141.622C141.49 30.3618 141.335 30.332 141.156 30.332Z" fill="#131314" stroke="#131314" stroke-width="0.1"/>
<path d="M135.341 33.7344H135.342C135.405 33.7291 135.454 33.7183 135.493 33.7041C135.533 33.6864 135.564 33.6591 135.587 33.6182C135.609 33.5726 135.623 33.4985 135.623 33.3906V30.9775C135.623 30.867 135.617 30.7836 135.606 30.7266L135.605 30.7217V30.7207C135.6 30.668 135.585 30.6385 135.565 30.6221C135.544 30.6042 135.509 30.5919 135.455 30.5918H135.449V30.5898C135.396 30.5845 135.319 30.583 135.22 30.583C135.19 30.583 135.161 30.5767 135.137 30.5596C135.112 30.542 135.096 30.5166 135.088 30.4883L135.086 30.4805L135.087 30.4795C135.083 30.4429 135.094 30.4093 135.12 30.3828C135.144 30.3588 135.177 30.3434 135.214 30.334C135.364 30.2894 135.518 30.2425 135.674 30.1924L135.675 30.1914C135.834 30.142 135.985 30.0852 136.128 30.0195V30.0186C136.144 30.0106 136.161 30.006 136.178 30.0039L136.229 30.0068L136.26 30.0195C136.269 30.0257 136.277 30.0339 136.284 30.0439C136.297 30.0631 136.301 30.0853 136.301 30.1055V30.6055C136.422 30.4341 136.572 30.2967 136.754 30.1963L136.93 30.1094C137.107 30.0348 137.291 29.9971 137.482 29.9971C137.767 29.9971 138.028 30.0813 138.266 30.249H138.267C138.371 30.3245 138.444 30.4072 138.477 30.498L138.495 30.5596C138.508 30.6201 138.504 30.6797 138.485 30.7383L138.486 30.7393C138.466 30.8126 138.423 30.8728 138.358 30.918C138.295 30.9623 138.226 30.9853 138.153 30.9854C138.087 30.9854 138.024 30.9653 137.966 30.9268L137.963 30.9248C137.903 30.8784 137.858 30.8075 137.822 30.7188V30.7197C137.77 30.5933 137.698 30.5081 137.609 30.459L137.606 30.458C137.52 30.402 137.423 30.3731 137.315 30.373C137.2 30.373 137.081 30.3987 136.958 30.4521C136.84 30.5058 136.73 30.5792 136.628 30.6709C136.533 30.7609 136.452 30.869 136.388 30.9971C136.33 31.1239 136.301 31.2655 136.301 31.4209V33.3906C136.301 33.4986 136.315 33.5726 136.337 33.6182L136.376 33.6719C136.39 33.6859 136.406 33.6966 136.422 33.7051C136.467 33.7197 136.518 33.7292 136.574 33.7344H136.573L136.786 33.7607L136.793 33.7617C136.821 33.7699 136.847 33.7856 136.864 33.8105C136.881 33.8351 136.888 33.8642 136.888 33.8936C136.888 33.9227 136.879 33.9535 136.854 33.9756C136.83 33.9963 136.799 34.0019 136.771 34.002H135.153C135.125 34.002 135.093 33.9965 135.069 33.9756C135.044 33.9535 135.036 33.9227 135.036 33.8936C135.036 33.8642 135.042 33.8351 135.06 33.8105C135.077 33.7855 135.102 33.7698 135.131 33.7617L135.137 33.7598C135.21 33.7485 135.278 33.7401 135.341 33.7344Z" fill="#131314" stroke="#131314" stroke-width="0.1"/>
<path d="M131.709 29.9971C132.146 29.9971 132.514 30.0993 132.809 30.3066H132.81C133.107 30.5066 133.331 30.7593 133.48 31.0635C133.629 31.3613 133.704 31.6876 133.704 32.041C133.704 32.3062 133.662 32.5579 133.578 32.7949L133.48 33.0273C133.35 33.2889 133.162 33.515 132.918 33.7051L132.811 33.7842C132.515 33.9867 132.147 34.0859 131.709 34.0859C131.271 34.0859 130.901 33.9863 130.601 33.7842L130.6 33.7832C130.308 33.5777 130.088 33.3258 129.938 33.0273L129.938 33.0264C129.795 32.7233 129.724 32.3943 129.724 32.041C129.724 31.6879 129.794 31.3621 129.938 31.0645H129.938C130.088 30.7604 130.308 30.5078 130.6 30.3076C130.9 30.0996 131.271 29.9971 131.709 29.9971ZM131.709 30.2646C131.43 30.2647 131.2 30.3526 131.015 30.5273L131.014 30.5283C130.825 30.701 130.684 30.9171 130.592 31.1777C130.499 31.4398 130.452 31.7277 130.452 32.041C130.452 32.3543 130.499 32.6422 130.592 32.9043H130.591C130.689 33.1655 130.83 33.3849 131.014 33.5635L131.086 33.623C131.258 33.7528 131.465 33.8183 131.709 33.8184C131.988 33.8184 132.216 33.7325 132.396 33.5635C132.585 33.3849 132.726 33.1654 132.818 32.9043H132.819C132.918 32.6423 132.967 32.3542 132.967 32.041C132.967 31.7277 132.92 31.4398 132.827 31.1777C132.735 30.9169 132.593 30.7011 132.404 30.5283V30.5273C132.219 30.3525 131.988 30.2646 131.709 30.2646Z" fill="#131314" stroke="#131314" stroke-width="0.1"/>
<path d="M127.46 28.8574C127.501 28.8574 127.542 28.868 127.571 28.8975C127.6 28.9269 127.611 28.9667 127.611 29.0078V30.0889H128.189C128.234 30.0889 128.276 30.0978 128.309 30.123C128.343 30.1501 128.356 30.1895 128.356 30.2314C128.356 30.2734 128.343 30.3128 128.309 30.3398C128.276 30.3651 128.234 30.374 128.189 30.374H127.611V33.0889C127.611 33.3369 127.65 33.5018 127.718 33.5947L127.778 33.6553C127.845 33.7076 127.931 33.7344 128.039 33.7344C128.18 33.7343 128.366 33.6895 128.598 33.5957L128.657 33.5801C128.677 33.5776 128.697 33.578 128.716 33.584C128.755 33.5963 128.78 33.6263 128.795 33.6621H128.796V33.6631L128.798 33.666H128.797C128.814 33.7031 128.819 33.7436 128.8 33.7822C128.781 33.8189 128.746 33.8435 128.705 33.8623L128.706 33.8633C128.558 33.9372 128.407 33.9932 128.253 34.0332L128.254 34.0342C128.099 34.0801 127.949 34.1025 127.804 34.1025C127.569 34.1025 127.365 34.0287 127.193 33.8809H127.192C127.015 33.7215 126.936 33.4577 126.941 33.1055V30.374H126.455C126.413 30.374 126.372 30.3649 126.341 30.3389C126.308 30.3114 126.296 30.2722 126.296 30.2314C126.296 30.1906 126.308 30.1515 126.341 30.124C126.372 30.098 126.413 30.0889 126.455 30.0889C126.614 30.0888 126.743 30.0752 126.844 30.0488C126.947 30.0177 127.027 29.967 127.087 29.8975V29.8965C127.153 29.8207 127.203 29.7149 127.235 29.5752L127.236 29.5732C127.274 29.4271 127.298 29.2382 127.31 29.0059C127.31 28.9654 127.321 28.9264 127.35 28.8975C127.379 28.8681 127.419 28.8575 127.46 28.8574Z" fill="#131314" stroke="#131314" stroke-width="0.1"/>
<path d="M123.151 28.5469C123.531 28.5469 123.901 28.6086 124.258 28.7334H124.257C124.381 28.7675 124.511 28.826 124.648 28.9072H124.666L124.678 28.9141C124.753 28.9601 124.82 29.0099 124.878 29.0625C124.908 29.0847 124.937 29.1063 124.962 29.1289L125.033 29.2012C125.155 29.3466 125.204 29.4914 125.142 29.624L125.141 29.625C125.113 29.6811 125.076 29.7259 125.029 29.7568C124.983 29.788 124.929 29.8027 124.87 29.8027C124.817 29.8027 124.764 29.7901 124.713 29.7646C124.657 29.7365 124.611 29.686 124.575 29.6201L124.528 29.5273C124.515 29.496 124.503 29.4635 124.494 29.4307L124.493 29.4268V29.4258C124.483 29.3695 124.465 29.3158 124.439 29.2646L124.438 29.2627C124.414 29.2087 124.374 29.1548 124.316 29.1025L124.314 29.1016C124.26 29.047 124.172 28.9944 124.047 28.9453C123.785 28.8639 123.5 28.8223 123.193 28.8223C123.013 28.8223 122.837 28.8416 122.668 28.8799L122.667 28.8809V28.8799C122.505 28.9123 122.36 28.9695 122.231 29.0498L122.229 29.0508C122.103 29.1249 122.002 29.2227 121.929 29.3438C121.856 29.463 121.819 29.6071 121.819 29.7783C121.819 29.879 121.834 29.9769 121.866 30.0723C121.896 30.163 121.955 30.2513 122.045 30.3359C122.141 30.4212 122.271 30.5022 122.436 30.5791H122.435C122.604 30.65 122.824 30.7164 123.096 30.7773H123.095C123.363 30.8333 123.64 30.8948 123.926 30.9619H123.925C124.214 31.0242 124.478 31.1171 124.717 31.2422H124.716C124.956 31.3624 125.155 31.5233 125.311 31.7246L125.368 31.8027C125.494 31.9916 125.557 32.2255 125.557 32.502C125.557 32.7834 125.493 33.0275 125.364 33.2324C125.237 33.4344 125.07 33.602 124.863 33.7344H124.862C124.656 33.8605 124.418 33.9509 124.151 34.0078L124.152 34.0088C123.891 34.0712 123.619 34.1025 123.336 34.1025C122.868 34.1025 122.449 34.04 122.08 33.915H122.079C121.714 33.7894 121.354 33.5649 120.998 33.2432L120.996 33.2412C120.954 33.1991 120.923 33.1557 120.908 33.1104C120.893 33.0632 120.896 33.0159 120.92 32.9727H120.921C120.94 32.9346 120.964 32.9022 120.996 32.8799C121.029 32.8569 121.066 32.8458 121.106 32.8457C121.184 32.8457 121.247 32.8896 121.298 32.959L121.384 33.0693C121.473 33.1763 121.575 33.2727 121.689 33.3584H121.688C121.842 33.4679 122.006 33.5577 122.182 33.6289H122.181C122.357 33.6949 122.532 33.7444 122.708 33.7773C122.889 33.8103 123.059 33.8238 123.217 33.8184H123.218C123.486 33.8129 123.725 33.7662 123.937 33.6797L124.094 33.6055C124.243 33.5279 124.37 33.4387 124.475 33.3379L124.476 33.3369C124.621 33.2021 124.722 33.0552 124.78 32.8965L124.813 32.7744C124.836 32.6547 124.828 32.5386 124.789 32.4258L124.788 32.4238C124.742 32.2692 124.635 32.1264 124.463 31.9971L124.461 31.9961C124.296 31.8629 124.055 31.7559 123.735 31.6787H123.734C123.467 31.612 123.184 31.5508 122.883 31.4951H122.882C122.578 31.4331 122.295 31.3486 122.035 31.2412H122.034C121.777 31.1328 121.562 30.9891 121.39 30.8105L121.388 30.8096V30.8086C121.216 30.6189 121.132 30.3712 121.132 30.0713C121.132 29.8017 121.189 29.5686 121.307 29.375C121.393 29.2317 121.502 29.108 121.631 29.0039L121.768 28.9062C121.957 28.7802 122.172 28.6888 122.411 28.6318C122.65 28.5751 122.896 28.5469 123.151 28.5469Z" fill="#131314" stroke="#131314" stroke-width="0.1"/>
<path d="M113.986 30.0566C114.016 30.0566 114.048 30.064 114.072 30.0879C114.096 30.1117 114.104 30.1438 114.104 30.1738C114.103 30.2015 114.096 30.2302 114.076 30.2529C114.056 30.2754 114.029 30.2851 114.002 30.2891L114.003 30.29C113.936 30.3012 113.872 30.3121 113.811 30.3232L113.807 30.3242C113.748 30.3295 113.704 30.3395 113.671 30.3535C113.646 30.364 113.627 30.3826 113.614 30.415C113.608 30.4383 113.613 30.4831 113.639 30.5566L113.906 31.209C113.985 31.3882 114.058 31.5678 114.125 31.7471L114.359 32.333L114.694 33.1123L114.729 33.1758L114.729 33.1768L114.762 33.1123L115.834 30.5645C115.859 30.4862 115.853 30.4468 115.84 30.4287L115.835 30.4229L115.881 30.3994L115.836 30.4219C115.822 30.3933 115.793 30.3696 115.741 30.3555L115.736 30.3545C115.711 30.3445 115.683 30.3356 115.652 30.3291L115.55 30.3154C115.476 30.3097 115.404 30.3015 115.336 30.29V30.2891C115.309 30.285 115.282 30.2751 115.263 30.2529C115.243 30.2302 115.235 30.2015 115.235 30.1738C115.235 30.1438 115.243 30.1117 115.267 30.0879C115.29 30.064 115.322 30.0566 115.353 30.0566H116.861C116.891 30.0567 116.923 30.0642 116.946 30.0879C116.968 30.1098 116.974 30.1383 116.976 30.166H116.978C116.982 30.1949 116.977 30.2275 116.955 30.2529C116.934 30.2765 116.905 30.2854 116.877 30.2891C116.809 30.3004 116.738 30.3097 116.664 30.3154C116.603 30.3206 116.54 30.3362 116.478 30.3623L116.476 30.3633C116.421 30.3831 116.368 30.4155 116.316 30.4619C116.268 30.5053 116.221 30.5762 116.178 30.6787L116.171 30.6768C116.106 30.8337 116.042 30.9915 115.977 31.1484C115.91 31.3103 115.842 31.472 115.775 31.6338V31.6348L114.963 33.5615L114.561 34.5342C114.462 34.7645 114.343 34.9641 114.202 35.1318L114.055 35.2881C113.843 35.4942 113.564 35.5957 113.224 35.5957C113.046 35.5957 112.888 35.5665 112.75 35.5068L112.618 35.4365C112.462 35.3326 112.344 35.2119 112.267 35.0752L112.266 35.0742C112.184 34.917 112.169 34.7739 112.252 34.6621C112.321 34.5614 112.414 34.5068 112.528 34.5068C112.601 34.5069 112.669 34.5301 112.732 34.5742L112.735 34.5762L112.781 34.6221C112.822 34.673 112.849 34.7385 112.862 34.8154L112.886 34.9141C112.912 35.0058 112.948 35.0793 112.993 35.1357L113.046 35.1816C113.106 35.2217 113.188 35.2441 113.299 35.2441C113.437 35.2441 113.554 35.2145 113.651 35.1582L113.653 35.1572C113.753 35.1046 113.84 35.0332 113.914 34.9434L113.915 34.9424C113.99 34.8568 114.054 34.7571 114.108 34.6436L114.11 34.6416C114.171 34.531 114.227 34.42 114.276 34.3096C114.322 34.1906 114.328 34.0828 114.299 33.9844V33.9824C114.271 33.8781 114.241 33.7883 114.209 33.7129H114.208L112.929 30.6611L112.926 30.6621C112.883 30.5596 112.836 30.4887 112.788 30.4453C112.737 30.3993 112.685 30.3698 112.632 30.3555L112.628 30.3545C112.571 30.3338 112.511 30.3206 112.448 30.3154V30.3145C112.375 30.3088 112.304 30.3014 112.235 30.29V30.2891C112.208 30.2853 112.178 30.2765 112.157 30.2529C112.135 30.2275 112.131 30.1949 112.135 30.166H112.137C112.138 30.1383 112.144 30.1098 112.166 30.0879C112.19 30.0641 112.222 30.0566 112.252 30.0566H113.986Z" fill="#131314" stroke="#131314" stroke-width="0.1"/>
<path d="M107.528 33.7344H107.529C107.592 33.7291 107.642 33.7183 107.681 33.7041C107.72 33.6864 107.752 33.6591 107.774 33.6182C107.797 33.5726 107.811 33.4985 107.811 33.3906V30.9775C107.811 30.867 107.804 30.7836 107.794 30.7266L107.793 30.7217V30.7207C107.788 30.668 107.772 30.6385 107.753 30.6221C107.731 30.6042 107.697 30.5919 107.643 30.5918H107.637V30.5898C107.583 30.5845 107.507 30.583 107.407 30.583C107.378 30.583 107.349 30.5767 107.324 30.5596C107.299 30.542 107.284 30.5166 107.275 30.4883L107.273 30.4805L107.274 30.4795C107.27 30.4429 107.281 30.4093 107.308 30.3828C107.332 30.3588 107.365 30.3434 107.401 30.334C107.552 30.2894 107.705 30.2425 107.861 30.1924L107.862 30.1914C108.022 30.142 108.173 30.0852 108.315 30.0195V30.0186C108.331 30.0106 108.348 30.006 108.365 30.0039L108.417 30.0068L108.447 30.0195C108.457 30.0257 108.465 30.0339 108.472 30.0439C108.484 30.0631 108.488 30.0853 108.488 30.1055V30.6055C108.609 30.4341 108.759 30.2967 108.941 30.1963L109.117 30.1094C109.295 30.0348 109.479 29.9971 109.67 29.9971C109.954 29.9971 110.216 30.0813 110.453 30.249H110.454C110.559 30.3245 110.631 30.4072 110.664 30.498L110.683 30.5596C110.696 30.6201 110.692 30.6797 110.673 30.7383L110.674 30.7393C110.654 30.8126 110.61 30.8728 110.546 30.918C110.483 30.9623 110.414 30.9853 110.341 30.9854C110.274 30.9854 110.211 30.9653 110.153 30.9268L110.15 30.9248C110.091 30.8784 110.045 30.8075 110.01 30.7188V30.7197C109.957 30.5933 109.885 30.5081 109.797 30.459L109.794 30.458C109.707 30.402 109.611 30.3731 109.503 30.373C109.388 30.373 109.268 30.3987 109.146 30.4521C109.028 30.5058 108.918 30.5792 108.815 30.6709C108.72 30.7609 108.639 30.869 108.575 30.9971C108.517 31.1239 108.488 31.2655 108.488 31.4209V33.3906C108.488 33.4986 108.502 33.5726 108.524 33.6182L108.563 33.6719C108.577 33.6859 108.593 33.6966 108.609 33.7051C108.654 33.7197 108.705 33.7292 108.762 33.7344H108.761L108.974 33.7607L108.98 33.7617C109.009 33.7699 109.034 33.7856 109.052 33.8105C109.069 33.8351 109.075 33.8642 109.075 33.8936C109.075 33.9227 109.066 33.9535 109.041 33.9756C109.017 33.9963 108.986 34.0019 108.958 34.002H107.341C107.312 34.002 107.281 33.9965 107.257 33.9756C107.232 33.9535 107.224 33.9227 107.224 33.8936C107.224 33.8642 107.23 33.8351 107.247 33.8105C107.265 33.7855 107.29 33.7698 107.318 33.7617L107.324 33.7598C107.398 33.7485 107.466 33.7401 107.528 33.7344Z" fill="#131314" stroke="#131314" stroke-width="0.1"/>
<path d="M105.409 27.9551C105.457 27.9712 105.469 28.0179 105.469 28.0527V33.3906C105.469 33.4985 105.483 33.5726 105.505 33.6182L105.545 33.6709C105.561 33.6854 105.579 33.6962 105.599 33.7051H105.598C105.643 33.7197 105.693 33.7302 105.75 33.7354L105.955 33.7607L105.959 33.7617C105.989 33.7692 106.017 33.7837 106.036 33.8105C106.054 33.8357 106.057 33.8649 106.055 33.8936C106.055 33.9227 106.047 33.9535 106.021 33.9756C105.998 33.9964 105.967 34.0019 105.938 34.002H104.329C104.3 34.0019 104.27 33.9963 104.246 33.9775C104.221 33.958 104.208 33.9295 104.204 33.9004L104.203 33.8936H104.204C104.204 33.8628 104.212 33.8324 104.231 33.8076C104.251 33.7831 104.279 33.7692 104.309 33.7617L104.313 33.7607C104.387 33.7494 104.455 33.741 104.518 33.7354L104.604 33.7236C104.629 33.7187 104.65 33.711 104.669 33.7041C104.709 33.6864 104.741 33.6594 104.764 33.6182C104.786 33.5726 104.799 33.4983 104.799 33.3906V28.9238C104.799 28.8131 104.793 28.7335 104.783 28.6826V28.6816C104.773 28.6271 104.755 28.595 104.733 28.5771L104.729 28.5742C104.713 28.5581 104.683 28.5432 104.627 28.5381H104.626C104.573 28.5328 104.496 28.5303 104.396 28.5303C104.367 28.5303 104.338 28.5231 104.313 28.5059C104.288 28.4883 104.273 28.4629 104.265 28.4346L104.263 28.4287L104.312 28.4209L104.263 28.4277C104.258 28.3911 104.271 28.3581 104.296 28.333C104.319 28.3098 104.352 28.2935 104.389 28.2812L104.393 28.2803C104.542 28.2414 104.695 28.1974 104.851 28.1475L105.082 28.0664C105.156 28.0375 105.228 28.0066 105.297 27.9736V27.9746C105.316 27.9653 105.334 27.9571 105.352 27.9531C105.369 27.9493 105.389 27.9485 105.409 27.9551Z" fill="#131314" stroke="#131314" stroke-width="0.1"/>
<path d="M101.323 29.9893C101.586 29.9893 101.827 30.0318 102.046 30.1182H102.045C102.268 30.1985 102.461 30.3161 102.623 30.4717C102.785 30.6224 102.91 30.8076 102.996 31.0264H102.995C103.087 31.2454 103.134 31.4889 103.134 31.7568C103.134 31.8406 103.108 31.9166 103.056 31.9814L103.054 31.9834C102.996 32.048 102.91 32.0752 102.807 32.0752H100.186C100.19 32.3619 100.229 32.607 100.306 32.8115C100.387 33.024 100.493 33.1972 100.621 33.3311L100.722 33.4219C100.826 33.5066 100.94 33.5727 101.065 33.6211H101.064C101.232 33.6803 101.401 33.7075 101.573 33.7021H101.574C101.813 33.6967 102.033 33.6474 102.232 33.5557L102.373 33.4736C102.507 33.3806 102.621 33.2554 102.714 33.0977L102.746 33.0527C102.782 33.0129 102.828 32.9893 102.883 32.9893C102.943 32.9894 102.988 33.0216 103.018 33.0732C103.051 33.1318 103.043 33.1961 103.01 33.2568C102.876 33.5012 102.667 33.6945 102.386 33.8379L102.385 33.8389C102.104 33.9766 101.789 34.0449 101.441 34.0449C101.202 34.0449 100.965 34.0107 100.731 33.9424L100.73 33.9414C100.495 33.8668 100.282 33.7495 100.093 33.5889C99.9024 33.4274 99.7479 33.22 99.6279 32.9688L99.627 32.9678C99.5118 32.7087 99.452 32.3966 99.4463 32.0342C99.4407 31.7334 99.4805 31.4594 99.5664 31.2129L99.6377 31.0312C99.7161 30.8562 99.8156 30.7014 99.9365 30.5674C100.098 30.3826 100.297 30.2413 100.533 30.1436C100.769 30.0401 101.033 29.9893 101.323 29.9893ZM101.391 30.332C100.996 30.3432 100.711 30.4805 100.526 30.7383C100.345 30.9915 100.238 31.3247 100.205 31.7402H102.086C102.243 31.7402 102.342 31.7072 102.395 31.6543C102.449 31.5942 102.48 31.5029 102.48 31.3721C102.48 31.2385 102.456 31.1099 102.408 30.9873L102.407 30.9854C102.365 30.8587 102.297 30.7475 102.202 30.6523L102.201 30.6514C102.112 30.5565 101.997 30.4791 101.857 30.4199H101.856C101.724 30.3618 101.569 30.332 101.391 30.332Z" fill="#131314" stroke="#131314" stroke-width="0.1"/>
<path d="M95.1221 30.0088L95.1436 30.0156L95.1514 30.0371L96.375 33.1123L96.4092 33.1748V33.1758C96.4177 33.1648 96.4296 33.1449 96.4414 33.1133V33.1123L97.4619 30.5977C97.4624 30.5949 97.4631 30.5924 97.4639 30.5898L97.4854 30.5293C97.4902 30.5118 97.493 30.4965 97.4941 30.4834C97.4963 30.457 97.4911 30.4432 97.4863 30.4365L97.4814 30.4307L97.5273 30.4072L97.4824 30.4297C97.4681 30.4011 97.4394 30.3774 97.3877 30.3633H97.3867C97.3354 30.3479 97.2719 30.3374 97.1963 30.332C97.1174 30.3264 97.0439 30.317 96.9756 30.3057C96.9455 30.3018 96.916 30.2908 96.8945 30.2666C96.8731 30.2423 96.8653 30.2119 96.8652 30.1816V30.1758L96.877 30.1299C96.8829 30.1151 96.8916 30.1016 96.9033 30.0898C96.9274 30.0657 96.9584 30.0557 96.9902 30.0557H98.499C98.5307 30.0557 98.5634 30.0653 98.5869 30.0918C98.6093 30.1171 98.6162 30.1502 98.6162 30.1816C98.6162 30.2106 98.6096 30.2405 98.5908 30.2646C98.5713 30.2896 98.5437 30.3025 98.5146 30.3066L98.5137 30.3057C98.4457 30.3169 98.375 30.3264 98.3018 30.332C98.239 30.3373 98.1756 30.35 98.1123 30.3711L98.1094 30.3721C98.0509 30.3867 97.9966 30.4166 97.9463 30.4619C97.898 30.5054 97.8508 30.5761 97.8076 30.6787L97.8037 30.6777C97.6767 30.9871 97.5644 31.2667 97.4648 31.5156C97.3643 31.7669 97.2636 32.0182 97.1631 32.2695C97.068 32.5212 96.9643 32.7838 96.8525 33.0576C96.7408 33.3315 96.6098 33.6505 96.459 34.0137L96.4492 34.0361L96.4258 34.043C96.2931 34.0792 96.1761 34.0665 96.0869 33.9912L96.085 33.9893C96.0122 33.9225 95.9472 33.83 95.8896 33.7148L95.8877 33.7119V33.7109L94.8115 31.043C94.7219 31.2679 94.6381 31.4794 94.5566 31.6758C94.4674 31.9046 94.3751 32.139 94.2803 32.3789H94.2793C94.1843 32.6135 94.0847 32.8625 93.9785 33.125C93.8723 33.3878 93.7491 33.684 93.6094 34.0137L93.5996 34.0361L93.5771 34.043C93.4491 34.0796 93.335 34.0661 93.2461 33.9912C93.1669 33.9242 93.099 33.8308 93.041 33.7148L93.0391 33.7119L91.7188 30.4541C91.6439 30.3816 91.5652 30.3445 91.4814 30.3398C91.3793 30.3342 91.2712 30.3236 91.1582 30.3066V30.3057C91.1295 30.3014 91.1023 30.2893 91.083 30.2646C91.0642 30.2405 91.0577 30.2106 91.0576 30.1816C91.0576 30.1502 91.0645 30.1171 91.0869 30.0918C91.1104 30.0653 91.1431 30.0557 91.1748 30.0557H92.8672C92.8989 30.0557 92.9316 30.0653 92.9551 30.0918C92.9759 30.1154 92.9825 30.1454 92.9834 30.1748C92.9871 30.2048 92.9846 30.2379 92.9639 30.2646C92.9431 30.2914 92.9118 30.3029 92.8818 30.3066L92.8809 30.3057C92.8135 30.3168 92.7461 30.3264 92.6787 30.332C92.6223 30.3372 92.5798 30.3496 92.5488 30.3672L92.5439 30.3701L92.5234 30.3242L92.543 30.3701C92.5199 30.3802 92.5048 30.3972 92.4971 30.4277L92.4961 30.4297C92.4938 30.4379 92.4927 30.4552 92.499 30.4854C92.5051 30.5147 92.5173 30.552 92.5361 30.5977V30.5986C92.6367 30.8445 92.7209 31.0571 92.7881 31.2363C92.8551 31.415 92.9223 31.5938 92.9893 31.7725L93.207 32.3418L93.5254 33.1123C93.5385 33.1437 93.5504 33.1635 93.5596 33.1748V33.1758C93.5681 33.1648 93.5799 33.1449 93.5918 33.1133V33.1123L94.7148 30.3633C94.7177 30.3464 94.7238 30.3313 94.7344 30.3174C94.7643 30.236 94.8075 30.1602 94.8652 30.0908C94.8972 30.0496 94.9355 30.0189 94.9805 30.0039C95.0035 29.9963 95.027 29.9932 95.0508 29.9941L95.1221 30.0088Z" fill="#131314" stroke="#131314" stroke-width="0.1"/>
<path d="M88.3389 29.9893C88.6013 29.9893 88.8427 30.0318 89.0615 30.1182H89.0605C89.2841 30.1985 89.4771 30.3161 89.6387 30.4717C89.801 30.6224 89.9254 30.8076 90.0117 31.0264H90.0107C90.1028 31.2454 90.1494 31.4889 90.1494 31.7568C90.1494 31.8406 90.1232 31.9166 90.0713 31.9814L90.0693 31.9834C90.0118 32.048 89.9253 32.0752 89.8223 32.0752H87.2012C87.2054 32.3619 87.2447 32.607 87.3213 32.8115C87.403 33.024 87.5084 33.1972 87.6367 33.3311L87.7373 33.4219C87.8412 33.5066 87.9561 33.5727 88.0811 33.6211H88.0801C88.2473 33.6803 88.4168 33.7075 88.5889 33.7021H88.5898C88.8291 33.6967 89.0483 33.6474 89.248 33.5557L89.3887 33.4736C89.5228 33.3806 89.6365 33.2554 89.7295 33.0977L89.7617 33.0527C89.7976 33.0129 89.8435 32.9893 89.8984 32.9893C89.9583 32.9894 90.0036 33.0216 90.0332 33.0732C90.0667 33.1318 90.0591 33.1961 90.0254 33.2568C89.8914 33.5012 89.6823 33.6945 89.4014 33.8379L89.4004 33.8389C89.1192 33.9766 88.8043 34.0449 88.457 34.0449C88.2176 34.0449 87.9806 34.0107 87.7471 33.9424L87.7461 33.9414C87.5107 33.8668 87.2978 33.7495 87.1084 33.5889C86.9181 33.4274 86.7635 33.22 86.6436 32.9688L86.6426 32.9678C86.5274 32.7087 86.4676 32.3966 86.4619 32.0342C86.4563 31.7334 86.4961 31.4594 86.582 31.2129L86.6533 31.0312C86.7317 30.8562 86.8312 30.7014 86.9521 30.5674C87.1138 30.3826 87.3131 30.2413 87.5488 30.1436C87.7848 30.0401 88.0484 29.9893 88.3389 29.9893ZM88.4062 30.332C88.0112 30.3432 87.7263 30.4805 87.542 30.7383C87.3611 30.9915 87.2536 31.3247 87.2207 31.7402H89.1016C89.2591 31.7402 89.3573 31.7072 89.4102 31.6543C89.4647 31.5942 89.496 31.5029 89.4961 31.3721C89.4961 31.2385 89.4718 31.1099 89.4238 30.9873L89.4229 30.9854C89.3806 30.8587 89.3129 30.7475 89.2178 30.6523L89.2168 30.6514C89.1272 30.5565 89.0128 30.4791 88.873 30.4199H88.8721C88.74 30.3618 88.585 30.332 88.4062 30.332Z" fill="#131314" stroke="#131314" stroke-width="0.1"/>
<path d="M85.3428 28.6064C85.3727 28.6065 85.404 28.6141 85.4277 28.6377C85.4516 28.6616 85.46 28.6936 85.46 28.7236H85.459C85.4615 28.7508 85.4567 28.7782 85.4385 28.8018C85.4194 28.8263 85.3917 28.8405 85.3633 28.8477L85.3594 28.8486V28.8477L85.1543 28.874C85.0979 28.8792 85.0475 28.8914 85.0029 28.9111L85 28.9131V28.9121C84.9704 28.9232 84.9421 28.9489 84.918 28.9971L84.917 28.999C84.8955 29.0377 84.8809 29.1079 84.8809 29.2178V33.5342C84.8808 33.73 84.8468 33.9152 84.7773 34.0889C84.7082 34.2617 84.6119 34.4114 84.4902 34.5391C84.3685 34.6724 84.2242 34.7805 84.0566 34.8613L84.0557 34.8604C83.9347 34.9207 83.8065 34.9662 83.6699 34.9941L83.5303 35.0166C83.4438 35.0281 83.3411 35.0332 83.2227 35.0332C83.0991 35.0332 82.988 35.0095 82.8906 34.9609C82.7896 34.9133 82.7168 34.8497 82.6885 34.7646L82.6895 34.7637C82.6588 34.6878 82.654 34.6123 82.6807 34.5391L82.6816 34.5381C82.709 34.4698 82.7593 34.4161 82.8291 34.3779C82.9027 34.3345 82.9903 34.3393 83.082 34.376C83.1124 34.3882 83.1415 34.4022 83.1689 34.4189L83.2471 34.4766L83.249 34.4785C83.2686 34.4981 83.2881 34.5185 83.3076 34.5381L83.3662 34.5967L83.3691 34.5986C83.3872 34.6193 83.4058 34.6378 83.4248 34.6543L83.4834 34.6982L83.4902 34.7021L83.4893 34.7031L83.5381 34.7314C83.5564 34.7379 83.577 34.7412 83.5996 34.7412C83.6553 34.7411 83.7261 34.712 83.8154 34.6445C83.9144 34.5396 83.9984 34.3947 84.0635 34.2051C84.1283 34.016 84.1611 33.7925 84.1611 33.5342V29.2178C84.1611 29.1081 84.1474 29.0377 84.126 28.999L84.124 28.9971V28.9961C84.101 28.9504 84.0714 28.9248 84.0361 28.9131L84.0293 28.9111V28.9102C84.0108 28.9009 83.9894 28.8929 83.9648 28.8867L83.8799 28.874C83.8173 28.8683 83.7492 28.8589 83.6758 28.8477H83.6709C83.6424 28.8405 83.6156 28.827 83.5957 28.8047C83.5752 28.7816 83.5665 28.7532 83.5664 28.7236V28.7168L83.5781 28.6729C83.5845 28.659 83.5943 28.6465 83.6064 28.6357C83.6307 28.6143 83.661 28.6065 83.6914 28.6064H85.3428Z" fill="#131314" stroke="#131314" stroke-width="0.1"/>
<path d="M184.354 11.0371C184.457 11.0371 184.542 11.0512 184.605 11.085C184.669 11.119 184.708 11.1726 184.719 11.2422C184.752 11.3582 184.726 11.4786 184.65 11.5996L184.648 11.6025C184.381 11.9688 184.112 12.3349 183.845 12.7012C183.591 13.0678 183.338 13.4351 183.084 13.8018L183.083 13.8027L179.91 18.2002L179.911 18.2012C179.657 18.5682 179.396 18.9358 179.128 19.3027L179.127 19.3018C178.891 19.6423 178.649 19.9827 178.401 20.3232H181.668C182.159 20.3232 182.555 20.281 182.859 20.1982L183.087 20.1191C183.302 20.0336 183.481 19.9293 183.624 19.8066C183.815 19.6426 183.958 19.4442 184.054 19.2119L184.055 19.209H184.056C184.167 18.9732 184.256 18.7017 184.326 18.3945L184.328 18.3896C184.345 18.3385 184.375 18.2974 184.42 18.2725C184.462 18.2489 184.512 18.2434 184.565 18.25C184.621 18.25 184.672 18.262 184.709 18.2939C184.748 18.3272 184.764 18.3746 184.764 18.4268V18.4297L184.658 20.7139C184.658 20.7555 184.64 20.7923 184.604 20.8164C184.571 20.8385 184.528 20.8457 184.481 20.8457H176.93C176.838 20.8457 176.759 20.8274 176.695 20.7852C176.631 20.7424 176.588 20.6784 176.564 20.5986V20.5977C176.517 20.4222 176.574 20.2443 176.72 20.0684L182.881 11.5596H179.87C179.379 11.5596 178.975 11.6093 178.657 11.7061H178.656C178.351 11.7892 178.097 11.9139 177.892 12.0781C177.701 12.2416 177.55 12.4453 177.44 12.6914L177.441 12.6924C177.344 12.9293 177.259 13.1952 177.189 13.4893L177.188 13.4932C177.171 13.544 177.143 13.586 177.101 13.6143C177.059 13.6422 177.007 13.6542 176.951 13.6543H176.943V13.6533C176.89 13.6456 176.842 13.629 176.81 13.5967C176.776 13.563 176.766 13.5198 176.773 13.4746L176.88 11.1689C176.881 11.1272 176.898 11.0904 176.934 11.0664C176.967 11.0443 177.01 11.0371 177.057 11.0371H184.354Z" fill="#131314" stroke="#131314" stroke-width="0.1"/>
<path d="M170.872 10.8682C171.526 10.8682 172.126 10.9744 172.668 11.1885H172.667C173.222 11.388 173.701 11.6801 174.101 12.0654L174.246 12.209C174.576 12.553 174.835 12.9623 175.022 13.4365L175.103 13.6436C175.277 14.1322 175.364 14.6692 175.364 15.2539C175.364 15.4484 175.305 15.6224 175.185 15.7725L175.183 15.7744C175.057 15.9157 174.864 15.9814 174.616 15.9814H167.92C167.924 16.7453 168.028 17.3993 168.232 17.9443C168.442 18.4887 168.713 18.9336 169.046 19.2803C169.379 19.6139 169.762 19.8636 170.192 20.0303H170.191C170.623 20.1833 171.061 20.2522 171.506 20.2383C172.12 20.2243 172.684 20.0989 173.199 19.8623C173.711 19.6132 174.127 19.2188 174.446 18.6768L174.521 18.5762C174.599 18.4887 174.694 18.4405 174.807 18.4404C174.926 18.4404 175.019 18.5028 175.083 18.6143C175.15 18.7324 175.139 18.8647 175.062 19.002C174.733 19.604 174.217 20.0831 173.519 20.4395H173.518C172.819 20.7816 172.036 20.9521 171.169 20.9521C170.572 20.9521 169.981 20.8668 169.398 20.6963H169.397C168.813 20.511 168.286 20.2183 167.815 19.8193C167.344 19.4194 166.959 18.9053 166.66 18.2793L166.659 18.2783C166.374 17.6361 166.225 16.8604 166.211 15.9531C166.197 15.2009 166.296 14.518 166.51 13.9053L166.595 13.6748C166.802 13.147 167.08 12.6891 167.43 12.3018C167.83 11.845 168.322 11.4954 168.906 11.2529C169.491 10.996 170.147 10.8682 170.872 10.8682ZM171.042 11.5811C170.025 11.6091 169.28 11.9644 168.798 12.6396C168.319 13.3101 168.041 14.192 167.966 15.2891H172.797C173.201 15.2891 173.474 15.2047 173.629 15.0498C173.786 14.8789 173.868 14.6256 173.868 14.2812C173.868 13.9349 173.806 13.6026 173.682 13.2842L173.681 13.2822C173.57 12.9512 173.391 12.6615 173.143 12.4131L173.142 12.4121C172.907 12.164 172.61 11.9633 172.249 11.8105L172.248 11.8096C171.903 11.6579 171.502 11.5811 171.042 11.5811Z" fill="#131314" stroke="#131314" stroke-width="0.1"/>
<path d="M164.034 10.8984C164.106 10.9284 164.129 11.0045 164.129 11.0869V19.5059C164.129 19.7752 164.222 19.9445 164.397 20.0322C164.588 20.1133 164.842 20.1685 165.162 20.1963L165.273 20.2168C165.306 20.2271 165.335 20.2412 165.358 20.2598C165.409 20.3003 165.428 20.3582 165.419 20.4229L165.418 20.4219C165.416 20.4779 165.391 20.524 165.345 20.5566C165.299 20.5884 165.236 20.6049 165.162 20.6123L165.163 20.6133L163.05 20.8447C162.879 20.8731 162.74 20.8574 162.665 20.7637L162.66 20.7588V20.7578C162.611 20.6753 162.591 20.5513 162.591 20.3945V19.3262C162.215 19.8605 161.725 20.2684 161.117 20.5459C160.462 20.8449 159.792 20.9941 159.107 20.9941C158.666 20.9941 158.238 20.9372 157.825 20.8232L157.823 20.8223C157.424 20.6939 157.06 20.5157 156.731 20.2871L156.729 20.2861C156.414 20.0422 156.156 19.7401 155.955 19.3818L155.954 19.3809C155.766 19.0201 155.674 18.6029 155.674 18.1309V13.2871C155.674 13.0064 155.659 12.7913 155.632 12.6406C155.605 12.4922 155.552 12.3914 155.479 12.3311L155.477 12.3281C155.42 12.2711 155.323 12.2374 155.174 12.2373H155.169V12.2363C155.03 12.2225 154.834 12.2158 154.581 12.2158C154.518 12.2158 154.461 12.2017 154.418 12.168C154.375 12.1345 154.353 12.086 154.344 12.0293L154.343 12.0303C154.325 11.9598 154.338 11.8944 154.386 11.8418C154.431 11.7924 154.502 11.7584 154.59 11.7363C154.97 11.6238 155.356 11.5045 155.75 11.3779H155.751C156.158 11.2517 156.536 11.1045 156.886 10.9365L156.95 10.9082C156.971 10.9006 156.991 10.8953 157.01 10.8916C157.047 10.8843 157.084 10.8847 157.117 10.8984C157.189 10.9284 157.212 11.0045 157.212 11.0869V18.1309C157.212 18.8089 157.446 19.2992 157.909 19.6123C158.38 19.9306 158.92 20.0908 159.531 20.0908C159.893 20.0908 160.254 20.0352 160.616 19.9238H160.617C160.993 19.8125 161.326 19.6523 161.617 19.4443C161.907 19.223 162.143 18.9528 162.322 18.6348C162.501 18.3191 162.591 17.9543 162.591 17.5391V13.2871C162.591 13.0064 162.576 12.7913 162.549 12.6406C162.522 12.4922 162.469 12.3914 162.396 12.3311L162.394 12.3281C162.337 12.2711 162.24 12.2374 162.091 12.2373H162.086V12.2363C161.947 12.2225 161.751 12.2158 161.498 12.2158C161.435 12.2158 161.378 12.202 161.332 12.1699C161.286 12.1375 161.255 12.0894 161.238 12.0312L161.236 12.0244C161.227 11.9534 161.249 11.89 161.299 11.8398C161.347 11.792 161.418 11.7585 161.507 11.7363C161.886 11.6238 162.273 11.5045 162.667 11.3779H162.668C163.075 11.2517 163.453 11.1045 163.803 10.9365L163.867 10.9082C163.888 10.9006 163.908 10.8953 163.927 10.8916C163.964 10.8843 164.001 10.8847 164.034 10.8984Z" fill="#131314" stroke="#131314" stroke-width="0.1"/>
<path d="M153.107 8.94336C153.244 8.94341 153.379 8.98174 153.512 9.05566C153.645 9.12991 153.743 9.2342 153.805 9.36816C153.882 9.49238 153.912 9.64529 153.897 9.82227C153.882 10.0027 153.799 10.2002 153.656 10.415L153.657 10.416C153.468 10.707 153.164 10.9663 152.751 11.1943C152.378 11.4003 152.008 11.5398 151.645 11.6182C152.098 11.9223 152.46 12.2996 152.728 12.7539C153.013 13.2387 153.191 13.7526 153.263 14.2949L153.289 14.4932C153.339 14.9574 153.302 15.4269 153.177 15.9014C153.048 16.444 152.804 16.9289 152.447 17.3574L152.448 17.3584C152.147 17.7345 151.759 18.0495 151.285 18.3037L151.077 18.4092C150.519 18.6811 149.848 18.8154 149.067 18.8154H147.84C147.363 18.8155 147.013 18.874 146.783 18.9854C146.669 19.0406 146.587 19.1082 146.533 19.1865C146.48 19.2646 146.452 19.3566 146.452 19.4639C146.452 19.6404 146.538 19.7877 146.724 19.9072C146.814 19.9589 146.951 19.9996 147.139 20.0273C147.326 20.0551 147.559 20.0693 147.84 20.0693H149.181V20.0908C150.246 20.0945 151.104 20.2143 151.75 20.4531H151.749C152.416 20.6802 152.93 20.9799 153.29 21.3535H153.291C153.663 21.7255 153.907 22.142 154.022 22.6025L154.106 22.9424C154.179 23.2814 154.215 23.6167 154.215 23.9482C154.215 24.3792 154.106 24.8156 153.893 25.2578L153.894 25.2588C153.693 25.7038 153.377 26.1053 152.949 26.4619L152.948 26.4609C152.534 26.8183 151.999 27.1108 151.347 27.3379C150.706 27.5658 149.945 27.6787 149.067 27.6787C148.134 27.6787 147.345 27.5802 146.704 27.3809V27.3799C146.079 27.1809 145.564 26.9102 145.163 26.5664V26.5674C144.777 26.2381 144.497 25.8505 144.324 25.4053L144.265 25.2432C144.133 24.863 144.067 24.4663 144.067 24.0537C144.067 23.5961 144.153 23.1457 144.324 22.7031C144.496 22.2592 144.754 21.8723 145.098 21.543C145.299 21.3414 145.502 21.2334 145.704 21.2334C145.783 21.2335 145.852 21.2529 145.908 21.2959C145.95 21.3283 145.983 21.3723 146.006 21.4248L146.026 21.4805L146.027 21.4814C146.075 21.6549 146.025 21.8667 145.896 22.1104C145.56 22.7391 145.395 23.3444 145.395 23.9268C145.395 24.5245 145.54 25.0584 145.831 25.5293C146.122 26.0002 146.538 26.375 147.08 26.6533L147.081 26.6543C147.636 26.9458 148.298 27.0928 149.067 27.0928C149.683 27.0927 150.204 27.0013 150.634 26.8213C151.065 26.6404 151.419 26.3979 151.695 26.0938L151.696 26.0928C151.973 25.8022 152.173 25.463 152.298 25.0752L152.299 25.0732C152.438 24.6977 152.507 24.3227 152.507 23.9482C152.507 22.8846 152.227 22.1338 151.68 21.6816C151.143 21.2413 150.282 21.0156 149.088 21.0156H147.84C147.344 21.0156 146.938 20.9798 146.623 20.9082C146.31 20.8371 146.064 20.7443 145.888 20.627L145.885 20.625C145.711 20.4943 145.584 20.3469 145.51 20.1826L145.508 20.1777C145.45 20.0033 145.421 19.8213 145.421 19.6328C145.421 19.3643 145.533 19.0998 145.75 18.8398C145.955 18.5804 146.341 18.4096 146.894 18.3174C146.374 18.0535 145.949 17.7066 145.621 17.2734L145.62 17.2715C145.278 16.7868 145.05 16.2658 144.936 15.709C144.821 15.1523 144.821 14.588 144.936 14.0176C145.05 13.4325 145.278 12.9106 145.621 12.4531C145.965 11.9811 146.422 11.6025 146.992 11.3174C147.579 11.0169 148.271 10.8682 149.067 10.8682C149.409 10.8682 149.772 10.9037 150.155 10.9746L150.154 10.9805C150.314 11.032 150.488 11.0586 150.675 11.0586C151.1 11.0585 151.454 10.9283 151.74 10.6699L151.843 10.5654C152.07 10.3184 152.206 10.0527 152.254 9.76758C152.297 9.4805 152.399 9.2685 152.567 9.14453C152.731 9.01103 152.911 8.94336 153.107 8.94336ZM149.067 11.4551C148.514 11.4551 148.053 11.6198 147.683 11.9492C147.308 12.282 147.024 12.6986 146.829 13.1992C146.634 13.7005 146.536 14.2517 146.536 14.8525C146.536 15.4396 146.627 15.9836 146.809 16.4854C146.989 16.9852 147.266 17.401 147.64 17.7334C148.024 18.0632 148.5 18.2295 149.067 18.2295C149.635 18.2294 150.101 18.0633 150.472 17.7344L150.473 17.7334C150.861 17.4008 151.145 16.9852 151.325 16.4854L151.326 16.4844C151.497 16.0336 151.587 15.5558 151.598 15.0508V14.8311C151.598 14.2445 151.5 13.7005 151.305 13.1992C151.11 12.6986 150.826 12.282 150.451 11.9492C150.081 11.6199 149.62 11.4552 149.067 11.4551Z" fill="#131314" stroke="#131314" stroke-width="0.1"/>
<path d="M142.572 10.8975C142.644 10.9275 142.666 11.0046 142.666 11.0869V19.3789C142.666 19.6565 142.701 19.8577 142.766 19.9883L142.819 20.0713C142.877 20.1457 142.949 20.2015 143.034 20.2402L143.229 20.292C143.297 20.3057 143.369 20.3163 143.445 20.3232L143.701 20.3496L143.957 20.3867L143.961 20.3877C144.025 20.4037 144.078 20.4334 144.111 20.4814C144.144 20.5282 144.153 20.5852 144.146 20.6475C144.146 20.7064 144.129 20.7589 144.087 20.7959C144.046 20.8317 143.99 20.8457 143.928 20.8457H139.866C139.803 20.8457 139.747 20.8316 139.703 20.7979C139.659 20.7634 139.634 20.7131 139.626 20.6543L139.625 20.6475H139.626C139.626 20.5827 139.642 20.5246 139.679 20.4785C139.715 20.4326 139.769 20.4037 139.833 20.3877L139.837 20.3867C140.021 20.3584 140.192 20.3375 140.349 20.3232L140.575 20.292C140.643 20.2784 140.704 20.2613 140.758 20.2412C140.873 20.1893 140.963 20.1054 141.028 19.9883C141.093 19.8577 141.128 19.6565 141.128 19.3789V13.2861C141.128 13.0053 141.113 12.7903 141.086 12.6396C141.059 12.4915 141.007 12.3914 140.935 12.3311L140.931 12.3281L140.966 12.292L140.931 12.3271C140.874 12.2703 140.777 12.2364 140.628 12.2363H140.623C140.484 12.2225 140.288 12.2148 140.035 12.2148C139.972 12.2148 139.915 12.2011 139.869 12.1689C139.823 12.1365 139.792 12.0893 139.775 12.0312L139.773 12.0234C139.765 11.9524 139.786 11.889 139.836 11.8389C139.883 11.7914 139.954 11.7585 140.042 11.7363C140.422 11.6236 140.811 11.5038 141.205 11.377C141.612 11.2508 141.99 11.1035 142.34 10.9355L142.404 10.9082C142.425 10.9005 142.445 10.8943 142.464 10.8906C142.501 10.8833 142.539 10.8836 142.572 10.8975ZM141.812 7.33496C142.064 7.33502 142.293 7.41649 142.499 7.57812C142.712 7.74538 142.814 8.00215 142.814 8.33691C142.814 8.45415 142.791 8.60444 142.749 8.78711L142.75 8.78809C142.721 8.97664 142.663 9.15826 142.576 9.33203C142.503 9.50583 142.401 9.65822 142.271 9.78906C142.148 9.91181 141.994 9.9726 141.812 9.97266C141.631 9.97266 141.471 9.91194 141.335 9.79102L141.333 9.78906C141.202 9.65814 141.093 9.5058 141.006 9.33203L141.005 9.3291C140.934 9.15779 140.876 8.98612 140.833 8.81445L140.832 8.80957C140.804 8.62491 140.789 8.46718 140.789 8.33691C140.789 8.0021 140.892 7.74537 141.104 7.57812L141.105 7.57715C141.325 7.41636 141.561 7.33496 141.812 7.33496Z" fill="#131314" stroke="#131314" stroke-width="0.1"/>
<path d="M136.601 10.8887C137.214 10.8887 137.785 11.0476 138.311 11.3652L138.533 11.5107V11.5117C138.791 11.6982 138.963 11.8959 139.038 12.1064H139.037C139.111 12.2979 139.119 12.4841 139.06 12.6641C139.014 12.8312 138.915 12.9684 138.766 13.0732C138.617 13.1771 138.459 13.2304 138.293 13.2305C138.141 13.2305 137.998 13.1852 137.863 13.0957L137.86 13.0938V13.0928C137.758 13.0134 137.671 12.9019 137.597 12.7598L137.527 12.6074C137.39 12.2767 137.199 12.0473 136.957 11.9131L136.954 11.9111C136.723 11.7615 136.464 11.6866 136.178 11.6865C135.875 11.6865 135.564 11.754 135.245 11.8926L135.246 11.8936C134.941 12.0323 134.656 12.2196 134.392 12.4561C134.143 12.6909 133.935 12.9741 133.769 13.3066C133.617 13.6378 133.541 14.0049 133.541 14.4072V19.3789C133.541 19.6579 133.576 19.8597 133.642 19.9902C133.707 20.1073 133.79 20.189 133.891 20.2402C134.013 20.2807 134.149 20.3095 134.3 20.3232H134.299C134.384 20.3303 134.471 20.339 134.56 20.3496L134.831 20.3867L134.838 20.3877L134.916 20.4238C134.939 20.4393 134.959 20.4583 134.976 20.4814C135.008 20.5273 135.021 20.584 135.021 20.6475C135.021 20.7064 135.004 20.7589 134.962 20.7959C134.921 20.8317 134.865 20.8457 134.803 20.8457H130.72C130.657 20.8457 130.601 20.8317 130.561 20.7959C130.518 20.7589 130.501 20.7064 130.501 20.6475C130.501 20.584 130.515 20.5273 130.547 20.4814C130.579 20.4351 130.627 20.4043 130.686 20.3877L130.691 20.3867C130.876 20.3584 131.046 20.3374 131.202 20.3232L131.43 20.292C131.497 20.2786 131.556 20.2609 131.609 20.2412C131.725 20.1896 131.816 20.1071 131.881 19.9902C131.946 19.8597 131.981 19.6579 131.981 19.3789V13.2861C131.981 13.0053 131.968 12.7903 131.94 12.6396L131.939 12.6348C131.926 12.4879 131.88 12.3901 131.81 12.3311C131.737 12.2706 131.63 12.2363 131.481 12.2363H131.477C131.338 12.2225 131.143 12.2158 130.89 12.2158C130.826 12.2158 130.769 12.2011 130.723 12.1689C130.677 12.1365 130.646 12.0891 130.63 12.0312L130.628 12.0234C130.619 11.9524 130.639 11.889 130.689 11.8389C130.737 11.7913 130.809 11.7585 130.896 11.7363L132.059 11.377L132.36 11.2783C132.657 11.1758 132.943 11.0616 133.216 10.9355V10.9365C133.282 10.9037 133.35 10.8939 133.419 10.9111C133.457 10.9208 133.49 10.9417 133.512 10.9746C133.533 11.0065 133.541 11.0456 133.541 11.0869V12.5957C133.816 12.1451 134.165 11.781 134.591 11.5059L134.8 11.3809C135.371 11.0528 135.971 10.8887 136.601 10.8887Z" fill="#131314" stroke="#131314" stroke-width="0.1"/>
<path d="M128.337 5.75098C128.375 5.76056 128.408 5.78062 128.43 5.81348C128.451 5.84541 128.46 5.88441 128.46 5.92578V19.5059C128.46 19.7752 128.553 19.9445 128.729 20.0322C128.919 20.1134 129.166 20.1685 129.472 20.1963C129.553 20.2037 129.621 20.2234 129.668 20.2607C129.718 20.3013 129.738 20.3584 129.729 20.4229L129.728 20.4219C129.726 20.478 129.701 20.524 129.654 20.5566C129.609 20.5884 129.546 20.6049 129.472 20.6123L129.473 20.6133L127.38 20.8447L127.381 20.8457C127.21 20.8742 127.07 20.8583 126.995 20.7646C126.928 20.6809 126.9 20.5536 126.9 20.3945V19.8428C126.145 20.6398 125.074 21.0371 123.692 21.0371C122.995 21.0371 122.367 20.9086 121.81 20.6514C121.254 20.3948 120.783 20.045 120.397 19.6025L120.396 19.6016C120.011 19.1452 119.72 18.6107 119.521 17.999C119.321 17.3873 119.222 16.7329 119.222 16.0371C119.222 15.2987 119.335 14.6158 119.562 13.9893C119.79 13.3633 120.111 12.8216 120.524 12.3652C120.952 11.8946 121.466 11.531 122.064 11.2744L122.298 11.1787C122.85 10.9713 123.456 10.8682 124.115 10.8682C124.77 10.8682 125.342 10.9816 125.829 11.2109H125.828C126.266 11.4042 126.623 11.6626 126.9 11.9854V8.12598C126.9 7.84524 126.886 7.6302 126.858 7.47949L126.857 7.47461C126.844 7.32721 126.798 7.22894 126.728 7.16992C126.655 7.10956 126.548 7.07623 126.4 7.07617H126.395V7.07422C126.256 7.06041 126.06 7.05469 125.808 7.05469C125.744 7.05467 125.687 7.04088 125.642 7.00879C125.595 6.97632 125.564 6.92829 125.548 6.87012L125.546 6.86328C125.537 6.79226 125.558 6.72884 125.608 6.67871C125.656 6.63084 125.728 6.59737 125.816 6.5752C126.21 6.46265 126.604 6.34339 126.998 6.2168H126.999C127.406 6.0906 127.784 5.94335 128.134 5.77539L128.184 5.75488C128.234 5.73927 128.285 5.73807 128.337 5.75098ZM124.285 11.4756C123.772 11.4756 123.309 11.6075 122.895 11.8701H122.894C122.491 12.1201 122.143 12.4542 121.851 12.8721C121.558 13.2899 121.327 13.7635 121.159 14.2939L121.16 14.2949C121.006 14.8266 120.922 15.3728 120.908 15.9326C120.894 16.4924 120.95 17.0379 121.076 17.5693H121.075C121.215 18.0996 121.424 18.5736 121.702 18.9912H121.703C121.981 19.3935 122.341 19.7195 122.786 19.9697C123.229 20.2187 123.749 20.3447 124.349 20.3447C124.681 20.3447 124.999 20.2958 125.304 20.1992C125.61 20.0877 125.882 19.9486 126.117 19.7822C126.353 19.602 126.539 19.4088 126.676 19.2031L126.677 19.2012C126.827 18.9962 126.9 18.7952 126.9 18.5967V14.2598C126.9 13.7286 126.823 13.2844 126.671 12.9258C126.518 12.5651 126.319 12.2826 126.072 12.0771L126.07 12.0762C125.822 11.8559 125.54 11.7046 125.224 11.6221L125.222 11.6211C124.916 11.524 124.604 11.4756 124.285 11.4756Z" fill="#131314" stroke="#131314" stroke-width="0.1"/>
<path d="M112.879 10.8887C113.972 10.8887 114.884 11.1441 115.613 11.6582C116.353 12.1563 116.911 12.7834 117.281 13.5391H117.28C117.651 14.2797 117.836 15.0912 117.836 15.9727C117.836 16.8542 117.651 17.6731 117.281 18.4277H117.28C116.91 19.1691 116.354 19.7956 115.614 20.3076V20.3086C114.885 20.8089 113.972 21.0576 112.879 21.0576C111.786 21.0576 110.865 20.8088 110.122 20.3086L110.121 20.3076C109.396 19.7956 108.847 19.1689 108.477 18.4277L108.476 18.4268C108.12 17.6723 107.942 16.8539 107.942 15.9727C107.942 15.0916 108.12 14.2804 108.476 13.54L108.477 13.5391C108.847 12.7839 109.396 12.1572 110.121 11.6592C110.864 11.1446 111.785 10.8887 112.879 10.8887ZM112.879 11.4111C112.157 11.4111 111.556 11.6398 111.072 12.0957V12.0967C110.585 12.542 110.223 13.0988 109.985 13.7686C109.748 14.4394 109.629 15.174 109.629 15.9727C109.629 16.7713 109.748 17.5059 109.985 18.1768L110.085 18.4229C110.329 18.9859 110.658 19.468 111.072 19.8701L111.259 20.0254C111.708 20.364 112.247 20.5342 112.879 20.5342C113.601 20.5341 114.194 20.3124 114.663 19.8711C115.151 19.4115 115.513 18.8466 115.75 18.1768H115.751C116.002 17.5061 116.128 16.7711 116.128 15.9727C116.128 15.1739 116.009 14.4394 115.771 13.7686C115.534 13.099 115.172 12.5419 114.686 12.0967L114.685 12.0957C114.201 11.64 113.6 11.4112 112.879 11.4111Z" fill="#131314" stroke="#131314" stroke-width="0.1"/>
<path d="M99.7979 7.46191C100.563 7.46195 101.294 7.55382 101.989 7.73828C102.685 7.92303 103.298 8.20805 103.825 8.59277H103.824C104.366 8.9635 104.794 9.42693 105.108 9.9834C105.423 10.5419 105.58 11.1923 105.58 11.9326C105.58 12.6731 105.423 13.3165 105.107 13.8613C104.794 14.4032 104.38 14.8598 103.867 15.2305L103.866 15.2314C103.354 15.5872 102.77 15.8647 102.117 16.0635L102.116 16.0625C101.557 16.2365 100.986 16.353 100.404 16.418C100.86 16.5706 101.249 16.8114 101.568 17.1436H101.567C101.949 17.5252 102.303 17.921 102.628 18.3311C102.951 18.7238 103.28 19.0746 103.616 19.3828C103.959 19.6845 104.371 19.8359 104.853 19.8359C105.126 19.8359 105.363 19.7751 105.565 19.6543C105.771 19.5174 105.919 19.3544 106.014 19.166C106.108 18.9767 106.149 18.7737 106.136 18.5566C106.122 18.3426 106.042 18.1561 105.895 17.9951V17.9941C105.698 17.7695 105.515 17.5803 105.348 17.4268L105.345 17.4238C105.181 17.245 105.099 17.0279 105.099 16.7764C105.099 16.5687 105.166 16.4 105.304 16.2764L105.414 16.1855C105.531 16.1087 105.669 16.0713 105.826 16.0713C106.074 16.0713 106.266 16.1441 106.392 16.2988C106.524 16.4459 106.619 16.6221 106.678 16.8262C106.736 17.0284 106.765 17.2448 106.765 17.4746V18.0244C106.765 18.3028 106.736 18.5813 106.68 18.8594L106.614 19.1377C106.514 19.4958 106.356 19.8184 106.141 20.1055C105.989 20.3115 105.801 20.4893 105.577 20.6377L105.342 20.7764C105.022 20.9505 104.626 21.0361 104.155 21.0361C103.682 21.0361 103.25 20.9288 102.861 20.7129L102.86 20.7119C102.476 20.4842 102.113 20.2067 101.772 19.8799L101.771 19.8789C101.445 19.5395 101.127 19.1785 100.816 18.7969L100.815 18.7949C100.52 18.4016 100.211 18.0361 99.8877 17.6992V17.6982C99.5663 17.363 99.2237 17.0843 98.8613 16.8613H98.8604L98.8877 16.8193L98.8604 16.8604C98.5017 16.6259 98.1014 16.5021 97.6592 16.4883V16.4873C97.5548 16.4871 97.466 16.4656 97.3984 16.415L97.3926 16.4102C97.3416 16.3591 97.3145 16.297 97.3145 16.2266C97.3145 16.1561 97.3416 16.094 97.3926 16.043C97.4442 15.9913 97.5065 15.9642 97.5762 15.9609L97.6484 15.9658C97.7262 15.98 97.7862 15.9928 97.8271 16.0039C97.8473 16.0094 97.8655 16.0154 97.8789 16.0215C97.8826 16.0232 97.8864 16.0258 97.8906 16.0283H98.1475C98.9331 16.0283 99.6619 15.9443 100.334 15.7764C101.006 15.5943 101.586 15.3356 102.074 15.001C102.576 14.6525 102.966 14.2281 103.244 13.7275C103.535 13.2143 103.682 12.6234 103.682 11.9541C103.682 10.6002 103.187 9.61606 102.203 8.99219H102.202C101.226 8.35087 99.8765 8.02735 98.1475 8.02734H97.5156L97.5127 8.04785C97.252 8.04787 97.0284 8.10323 96.8398 8.21094C96.6802 8.30999 96.5898 8.52596 96.5898 8.88672V19.3994C96.5898 19.6775 96.6248 19.8791 96.6895 20.0098L96.7422 20.0928C96.7989 20.1693 96.8664 20.2262 96.9434 20.2646C97.0641 20.3179 97.1993 20.3517 97.3486 20.3652H97.3477C97.4323 20.3653 97.5185 20.369 97.6064 20.376L97.8799 20.4082L97.8867 20.4092H97.8857C97.9439 20.4258 97.9919 20.4565 98.0244 20.5029C98.0565 20.5488 98.0703 20.6055 98.0703 20.6689C98.0703 20.7278 98.0529 20.7805 98.0107 20.8174C97.9699 20.8531 97.914 20.8672 97.8516 20.8672H93.6631C93.6 20.8672 93.5434 20.8531 93.5 20.8193C93.4558 20.7849 93.4313 20.7347 93.4229 20.6758L93.4219 20.6689H93.4229C93.4229 20.6041 93.4387 20.5461 93.4756 20.5C93.5124 20.454 93.5659 20.4252 93.6299 20.4092L93.6338 20.4082C93.8038 20.3799 93.9672 20.3655 94.124 20.3652L94.2441 20.3506C94.3592 20.3326 94.4623 20.3039 94.5527 20.2637C94.6691 20.2119 94.7598 20.1276 94.8252 20.0098C94.8898 19.8791 94.9248 19.6774 94.9248 19.3994V8.92871C94.9248 8.64877 94.8892 8.45513 94.8252 8.33984L94.8242 8.33789C94.7582 8.20595 94.6674 8.11653 94.5527 8.06543C94.4334 8.01241 94.2917 7.98438 94.1279 7.98438H94.124C93.9676 7.97015 93.8041 7.94927 93.6338 7.9209L93.6299 7.91992C93.5673 7.90426 93.5145 7.87747 93.4775 7.83594C93.4399 7.79359 93.4229 7.74015 93.4229 7.68066V7.6748L93.4473 7.58594C93.4595 7.55937 93.4764 7.53588 93.498 7.5166C93.5416 7.47808 93.5987 7.46191 93.6631 7.46191H99.7979Z" fill="#131314" stroke="#131314" stroke-width="0.1"/>
<path d="M83.9551 10.8887C84.6349 10.9028 85.2116 10.9803 85.6826 11.123H85.6816C86.1691 11.2664 86.5927 11.5175 86.9512 11.876C87.1797 12.1045 87.327 12.3234 87.3867 12.5322C87.4449 12.7358 87.4452 12.9216 87.3857 13.0879L87.3867 13.0889C87.3412 13.2408 87.2496 13.3692 87.1152 13.4736L87.1133 13.4766L87.085 13.4346L87.1123 13.4766C86.9772 13.5665 86.8267 13.6113 86.6621 13.6113C86.4957 13.6113 86.3379 13.558 86.1895 13.4541L86.1846 13.4512C86.0481 13.3299 85.946 13.1432 85.874 12.8984L85.873 12.8965C85.7625 12.4542 85.5564 12.1193 85.2568 11.8877L85.2559 11.8867C84.9724 11.6572 84.5409 11.5381 83.9541 11.5381C83.2561 11.5381 82.734 11.6994 82.3799 12.0127C82.0213 12.33 81.8467 12.6766 81.8467 13.0537C81.8467 13.3667 81.9345 13.6295 82.1084 13.8447L82.2617 13.9951C82.422 14.1399 82.6059 14.2695 82.8135 14.3838L83.0254 14.4854C83.2403 14.5823 83.4635 14.6668 83.6943 14.7402H83.6934C84.018 14.8249 84.3077 14.9102 84.5625 14.9951C84.9439 15.1222 85.3396 15.2627 85.749 15.418H85.748C86.1609 15.5604 86.5386 15.7528 86.8809 15.9951H86.8799C87.224 16.2245 87.5044 16.511 87.7197 16.8555H87.7188C87.9368 17.1899 88.0449 17.6088 88.0449 18.1094C88.0449 18.6659 87.9225 19.1334 87.6768 19.5098C87.4757 19.8365 87.215 20.1144 86.8936 20.3418L86.752 20.4365C86.3799 20.6655 85.9577 20.8299 85.4873 20.9297L85.4863 20.9287C85.0321 21.028 84.5709 21.0781 84.1025 21.0781C83.3777 21.0781 82.6735 20.9575 81.9912 20.7158H81.9902C81.3219 20.4598 80.7453 20.1035 80.2607 19.6475L80.2598 19.6465C80.1437 19.5304 80.087 19.4084 80.1445 19.293C80.1689 19.2372 80.2042 19.1926 80.252 19.1621C80.3004 19.1313 80.3581 19.1172 80.4219 19.1172C80.5188 19.1172 80.6026 19.1495 80.6689 19.2158H80.668C81.0151 19.5208 81.4751 19.7924 82.0488 20.0303H82.0479C82.6328 20.253 83.3459 20.3652 84.1875 20.3652C85.012 20.3652 85.6329 20.1688 86.0576 19.7852L86.2139 19.6377C86.5523 19.2917 86.7178 18.9233 86.7178 18.5322C86.7177 18.2475 86.6299 18.0055 86.4551 17.8037L86.4531 17.8008C86.2883 17.581 86.0742 17.3952 85.8115 17.2432L85.8105 17.2422C85.5605 17.0894 85.2822 16.9638 84.9756 16.8662H84.9727V16.8652L84.1709 16.5703C83.791 16.4437 83.3827 16.3171 82.9463 16.1904C82.5201 16.0626 82.1285 15.8986 81.7725 15.6992L81.7715 15.6982C81.4135 15.4834 81.1119 15.2115 80.8682 14.8818L80.8672 14.8799C80.6343 14.545 80.5196 14.1114 80.5195 13.583C80.5195 13.0967 80.6205 12.6777 80.8232 12.3301C81.0242 11.9857 81.2831 11.7051 81.5996 11.4893H81.6006C81.848 11.3279 82.119 11.2028 82.4141 11.1143L82.7178 11.0371C83.1297 10.9378 83.5419 10.8887 83.9541 10.8887H83.9551Z" fill="#131314" stroke="#131314" stroke-width="0.1"/>
<path d="M74.8398 10.8682C75.3093 10.8682 75.7647 10.9252 76.2061 11.0391C76.648 11.1531 77.0412 11.3246 77.3848 11.5537C77.7286 11.783 78.0018 12.0696 78.2031 12.4141C78.4201 12.7612 78.5283 13.1589 78.5283 13.6045V19.4424C78.5283 19.6592 78.542 19.8361 78.5693 19.9727C78.5961 20.1062 78.6347 20.1968 78.6807 20.251L78.7744 20.3193C78.8743 20.3778 78.9934 20.4082 79.1338 20.4082C79.1964 20.4082 79.253 20.4212 79.2939 20.457C79.3362 20.494 79.3535 20.5475 79.3535 20.6064C79.3601 20.6629 79.3498 20.7158 79.3164 20.7588C79.2824 20.8024 79.2294 20.8281 79.167 20.8438L79.168 20.8447C78.9105 20.9162 78.6595 20.9521 78.415 20.9521C78.0543 20.9521 77.7278 20.8655 77.4375 20.6914C77.1346 20.5097 76.9902 20.1712 76.9902 19.6963V18.8838C76.7368 19.4326 76.3402 19.9142 75.8008 20.3281C75.1829 20.8023 74.3389 21.0371 73.2744 21.0371C72.8046 21.0371 72.3826 20.9728 72.0098 20.8438L72.0088 20.8428C71.6375 20.7 71.3214 20.5143 71.0625 20.2842L71.0615 20.2832C70.8174 20.0534 70.6298 19.7942 70.5 19.5059C70.3702 19.2174 70.3057 18.9139 70.3057 18.5967C70.3057 17.9534 70.4704 17.4263 70.8037 17.0205V17.0195C71.1467 16.6193 71.5614 16.3047 72.0469 16.0762C72.545 15.8343 73.0856 15.6713 73.668 15.5859L74.0967 15.5186C74.5183 15.4576 74.9205 15.4158 75.3027 15.3945C75.7957 15.3664 76.205 15.3526 76.5303 15.3525L76.749 15.3369C76.8104 15.3301 76.8607 15.3214 76.9004 15.3115C76.9405 15.3015 76.9663 15.2907 76.9805 15.2812C76.994 15.2722 76.9903 15.2698 76.9902 15.2754V13.6045C76.9902 13.2443 76.9207 12.9352 76.7842 12.6758C76.6468 12.4147 76.4614 12.2026 76.2285 12.0381C75.994 11.8725 75.7241 11.7473 75.4189 11.6641H75.418C75.1267 11.5809 74.8208 11.5391 74.501 11.5391C73.9439 11.5391 73.4364 11.6427 72.9785 11.8506L72.9795 11.8516C72.5672 12.0578 72.3565 12.3337 72.3301 12.6777C72.3025 13.0231 72.3507 13.3322 72.4736 13.6055H72.4746C72.6336 13.9668 72.6318 14.2711 72.4463 14.5029C72.269 14.7245 72.0509 14.8388 71.7939 14.8389C71.5806 14.8389 71.3854 14.7467 71.209 14.5703C71.0268 14.3882 70.9333 14.0982 70.9189 13.7119V13.71C70.919 13.5633 70.9549 13.3842 71.0244 13.1738V13.127L71.0303 13.1162L71.0898 12.9951C71.1185 12.8953 71.1556 12.7959 71.1982 12.6963C71.2418 12.5947 71.2992 12.5059 71.3721 12.4316C71.4134 12.3633 71.4566 12.3071 71.5 12.2627C71.5211 12.2346 71.5424 12.2068 71.5635 12.1787C71.5846 12.1505 71.6058 12.1219 71.627 12.0938L71.6309 12.0879H71.6318C71.6443 12.0755 71.6601 12.0659 71.6777 12.0596C71.726 11.9869 71.8042 11.911 71.9092 11.832L72.0576 11.7129C72.4096 11.4438 72.8102 11.2399 73.2598 11.1025C73.7722 10.946 74.2991 10.8682 74.8398 10.8682ZM76.9902 15.8555C76.552 15.857 76.0482 15.8773 75.4785 15.918C74.9766 15.9547 74.4958 16.0497 74.0371 16.2041L73.8418 16.2744C73.3414 16.4551 72.9182 16.7329 72.5713 17.1074L72.5703 17.1084C72.2293 17.4631 72.0557 17.9636 72.0557 18.6172C72.0557 19.0708 72.1995 19.4611 72.4873 19.79H72.4863C72.7852 20.102 73.1942 20.2598 73.7188 20.2598C74.0373 20.2598 74.3856 20.2045 74.7627 20.0928C75.1357 19.9822 75.4816 19.7882 75.8008 19.5107C76.1329 19.2201 76.4115 18.8312 76.6348 18.3428C76.8566 17.8433 76.9761 17.2164 76.9902 16.46V15.8555Z" fill="#131314" stroke="#131314" stroke-width="0.1"/>
<path d="M62.4795 11.0371C62.5436 11.0371 62.6017 11.0529 62.6426 11.0938C62.6833 11.1346 62.6992 11.1919 62.6992 11.2559C62.6992 11.3134 62.6843 11.3654 62.6494 11.4053C62.6147 11.4448 62.5656 11.4654 62.5088 11.4736L62.5098 11.4746C62.3408 11.5028 62.1783 11.5314 62.0234 11.5596H62.0195C61.8675 11.5734 61.7456 11.6011 61.6533 11.6406C61.5701 11.6764 61.508 11.7407 61.4697 11.8398L61.4707 11.8408C61.4472 11.923 61.463 12.0573 61.5322 12.252L61.9023 13.1406C62.015 13.4151 62.1164 13.6689 62.208 13.9014L62.4941 14.5791C62.586 14.8053 62.6749 15.0316 62.7598 15.2578H62.7588C62.942 15.7089 63.1402 16.2018 63.3516 16.7373H63.3506L64.1973 18.7031V18.7041C64.2316 18.7866 64.264 18.845 64.2939 18.8818C64.3247 18.9197 64.3463 18.9268 64.3574 18.9268C64.3681 18.9267 64.3884 18.92 64.417 18.8828C64.4451 18.8462 64.4749 18.7876 64.5059 18.7051L64.5068 18.7041L67.2129 12.2764C67.2822 12.0682 67.2754 11.9344 67.2197 11.8564L67.2148 11.8496V11.8486C67.1663 11.7524 67.0745 11.6821 66.9297 11.6426L66.9248 11.6416V11.6406C66.7898 11.5866 66.6254 11.5529 66.4316 11.5391C66.247 11.5249 66.0692 11.5031 65.8984 11.4746V11.4736C65.8418 11.4653 65.7924 11.4448 65.7578 11.4053C65.723 11.3654 65.709 11.3133 65.709 11.2559C65.709 11.1919 65.7248 11.1346 65.7656 11.0938C65.8065 11.0529 65.8637 11.0371 65.9277 11.0371H69.7354C69.7994 11.0371 69.8566 11.053 69.8975 11.0938C69.9368 11.1331 69.952 11.1878 69.9531 11.249C69.9615 11.3077 69.9531 11.3628 69.916 11.4053C69.8802 11.4462 69.8257 11.4657 69.7637 11.4736L69.7646 11.4746C69.5939 11.5031 69.4161 11.5249 69.2314 11.5391C69.0679 11.5527 68.9039 11.5935 68.7393 11.6621L68.7373 11.6631C68.5891 11.717 68.4464 11.8046 68.3096 11.9277C68.1762 12.0477 68.0527 12.2378 67.9414 12.502L67.9248 12.498C67.7609 12.8941 67.5975 13.2904 67.4336 13.6865C67.2644 14.0954 67.095 14.5042 66.9258 14.9131V14.9141L64.874 19.7793L63.8584 22.2324V22.2334C63.5319 22.9999 63.112 23.6264 62.5986 24.1113C62.0801 24.6151 61.3969 24.8652 60.5547 24.8652C59.9693 24.8652 59.4729 24.7366 59.0684 24.4766L59.0674 24.4756C58.6818 24.2185 58.394 23.9242 58.2061 23.5918L58.2051 23.5898C58.0041 23.2022 57.981 22.8761 58.167 22.6279C58.3297 22.392 58.5408 22.2697 58.7988 22.2695C58.9237 22.2695 59.0444 22.2986 59.1592 22.3574L59.2725 22.4258L59.2744 22.4277C59.4276 22.5503 59.5236 22.7393 59.5674 22.9863C59.6367 23.3468 59.7541 23.627 59.916 23.8301L59.9844 23.8994C60.156 24.0511 60.4068 24.1308 60.7451 24.1309C61.1045 24.1309 61.4129 24.0542 61.6719 23.9043L61.6738 23.9033C61.9357 23.7655 62.1631 23.5795 62.3564 23.3447L62.3574 23.3438C62.5516 23.1219 62.7182 22.8647 62.8574 22.5723L62.8594 22.5703C63.0139 22.2894 63.1539 22.0083 63.2803 21.7275C63.4031 21.4125 63.4224 21.1214 63.3418 20.8525L63.3408 20.8516C63.2708 20.5855 63.1947 20.3547 63.1113 20.1602H63.1104L59.8818 12.458L59.874 12.46C59.7627 12.1957 59.6392 12.0058 59.5059 11.8857C59.3696 11.7632 59.2283 11.6825 59.082 11.6426L59.0781 11.6416C58.9273 11.5868 58.7694 11.5528 58.6045 11.5391V11.5381C58.4202 11.5239 58.2427 11.503 58.0723 11.4746V11.4736C58.0105 11.4657 57.9566 11.4461 57.9209 11.4053C57.8852 11.3644 57.8761 11.3121 57.8828 11.2559C57.8829 11.1919 57.8986 11.1346 57.9395 11.0938C57.9803 11.0531 58.0376 11.0371 58.1016 11.0371H62.4795Z" fill="#131314" stroke="#131314" stroke-width="0.1"/>
<path d="M53.8438 10.8887C54.9365 10.8887 55.849 11.1441 56.5781 11.6582C57.3182 12.1563 57.8753 12.7834 58.2461 13.5391H58.2451C58.6154 14.2797 58.8008 15.0912 58.8008 15.9727C58.8008 16.8542 58.6163 17.6731 58.2461 18.4277H58.2451C57.8744 19.1691 57.3186 19.7956 56.5791 20.3076V20.3086C55.8499 20.8089 54.9369 21.0576 53.8438 21.0576C52.7504 21.0576 51.8301 20.8088 51.0869 20.3086L51.0859 20.3076C50.3605 19.7956 49.812 19.1689 49.4414 18.4277L49.4404 18.4268C49.0846 17.6723 48.9072 16.8539 48.9072 15.9727C48.9073 15.0916 49.0845 14.2804 49.4404 13.54L49.4414 13.5391C49.8119 12.7839 50.3604 12.1572 51.0859 11.6592C51.8293 11.1446 52.75 10.8887 53.8438 10.8887ZM53.8438 11.4111C53.1221 11.4111 52.5206 11.6398 52.0371 12.0957V12.0967C51.55 12.542 51.1874 13.0988 50.9502 13.7686C50.7126 14.4394 50.5938 15.174 50.5938 15.9727C50.5938 16.7713 50.7127 17.5059 50.9502 18.1768L51.0498 18.4229C51.294 18.9859 51.6231 19.468 52.0371 19.8701L52.2236 20.0254C52.6724 20.364 53.2118 20.5342 53.8438 20.5342C54.5656 20.5341 55.159 20.3124 55.6279 19.8711C56.1154 19.4115 56.4776 18.8466 56.7148 18.1768H56.7158C56.9673 17.5061 57.0928 16.7711 57.0928 15.9727C57.0928 15.1739 56.9739 14.4394 56.7363 13.7686C56.4992 13.099 56.1373 12.5419 55.6504 12.0967L55.6494 12.0957C55.166 11.64 54.5652 11.4112 53.8438 11.4111Z" fill="#131314" stroke="#131314" stroke-width="0.1"/>
<path d="M48.3506 7.37793C48.4145 7.37799 48.4719 7.39377 48.5127 7.43457C48.552 7.47393 48.5672 7.52865 48.5684 7.58984C48.5768 7.64917 48.5671 7.70414 48.5322 7.74902C48.4983 7.7927 48.4462 7.82029 48.3838 7.83594L48.3799 7.83691C48.2947 7.85111 48.2092 7.86337 48.124 7.87402L47.8682 7.90039C47.7179 7.91405 47.5823 7.94805 47.4609 8.00195L47.458 8.00391V8.00293C47.3603 8.03957 47.2766 8.1206 47.21 8.25391L47.209 8.25586C47.145 8.37115 47.1104 8.56486 47.1104 8.84473V19.7383C47.1104 20.2238 47.0242 20.6821 46.8525 21.1113C46.7025 21.4864 46.503 21.8182 46.2539 22.1064L46.1445 22.2266C45.844 22.5556 45.4866 22.8205 45.0723 23.0205V23.0195C44.672 23.2196 44.2362 23.3473 43.7656 23.4043L43.7666 23.4053C43.5522 23.4339 43.2956 23.4482 42.998 23.4482C42.6959 23.4482 42.4278 23.39 42.1943 23.2734C41.9497 23.1582 41.7886 23.0102 41.7256 22.8242V22.8252C41.6509 22.646 41.6422 22.4708 41.7031 22.3027L41.7041 22.3008C41.7655 22.1473 41.8804 22.0267 42.0439 21.9375C42.2027 21.843 42.3959 21.8468 42.6152 21.9346C42.725 21.9785 42.8265 22.0348 42.9199 22.1035L43.0107 22.1758L43.0127 22.1777V22.1787L43.3086 22.4746L43.3115 22.4766C43.4074 22.5861 43.5091 22.6746 43.6172 22.7422L43.624 22.7461L43.623 22.7471L43.6934 22.7969C43.7673 22.8399 43.8526 22.8613 43.9502 22.8613C44.1171 22.8613 44.3172 22.7775 44.5527 22.5977C44.8125 22.3226 45.0266 21.9434 45.1934 21.457C45.3604 20.9699 45.4443 20.397 45.4443 19.7383V8.84473C45.4443 8.56471 45.4088 8.37113 45.3447 8.25586L45.3438 8.25391C45.2781 8.12264 45.1891 8.0413 45.0771 8.00391L45.0703 8.00195V8.00098C44.9648 7.94824 44.8299 7.91413 44.665 7.90039C44.5087 7.88618 44.3384 7.86524 44.1543 7.83691L44.1494 7.83594C44.087 7.8203 44.0349 7.79328 43.998 7.75195C43.9604 7.7096 43.9424 7.65617 43.9424 7.59668V7.59082H43.9434C43.9514 7.52651 43.9741 7.47127 44.0176 7.43262C44.061 7.39401 44.1182 7.37801 44.1826 7.37793H48.3506Z" fill="#131314" stroke="#131314" stroke-width="0.1"/>
<path fill-rule="evenodd" clip-rule="evenodd" d="M8.50649 15.5H21.4405L28.8979 24.0228L14.72 38.2007L0 24.0065L8.50649 15.5ZM8.7714 16.6493L5.03822 20.3825L9.58804 17.2174L8.7714 16.6493ZM10.4636 17.8265L2.3079 23.5H9.00649L12.9502 19.5563L10.4636 17.8265ZM13.6686 18.8379L11.3392 17.2174L12.1558 16.6493L14.0065 18.5L13.6686 18.8379ZM13.7842 20.1365L13.1377 20.783L13.9424 20.2465L13.7842 20.1365ZM14.8366 19.6504L14.5026 19.4181L14.7136 19.2071L15.0288 19.5223L14.8366 19.6504ZM14.8246 20.8602L10.865 23.5H18.6193L14.8246 20.8602ZM19.47 24.5H9.9572L14.7136 36.1748L19.47 24.5ZM13.3583 35.4985L8.87739 24.5H1.95243L13.3583 35.4985ZM16.1108 35.3957L20.5498 24.5H27.0065L16.1108 35.3957ZM24.8989 20.971L21.1261 16.6593L20.0013 17.4091L24.8989 20.971ZM19.1142 18.0005L26.676 23.5H20.4207L16.5984 19.6777L19.1142 18.0005ZM19.1391 16.7821L19.5622 16.5H18.7512L19.1391 16.7821ZM16.0065 16.5H13.4207L14.7136 17.7929L16.0065 16.5ZM15.4207 18.5L15.8773 18.9566L18.252 17.3735L17.265 16.6557L15.4207 18.5ZM10.6193 16.5L10.4636 16.6083L10.3079 16.5H10.6193ZM15.7499 20.2434L15.7188 20.2641L15.889 20.3825L15.7499 20.2434Z" fill="#131314"/>
<path fill-rule="evenodd" clip-rule="evenodd" d="M15.2454 3.08203L19.4946 10.164L24.9132 6.10005L25.6543 6.73534L21.2388 15.0145L19.2076 11.6292L15.227 14.6147L10.6011 11.4606L8.15545 14.9544L3.77197 6.73534L4.49482 6.08694L10.3483 10.0779L15.2454 3.08203ZM11.1746 10.6413L15.1993 13.3854L18.6903 10.7672L15.1809 4.91807L11.1746 10.6413ZM9.77479 10.8972L5.61081 8.05816L8.27085 13.0457L9.77479 10.8972ZM20.0118 11.026L21.1875 12.9856L23.7131 8.25005L20.0118 11.026Z" fill="#131314"/>
<path d="M4.21338 5C4.21338 5.55228 3.76566 6 3.21338 6C2.66109 6 2.21338 5.55228 2.21338 5C2.21338 4.44772 2.66109 4 3.21338 4C3.76566 4 4.21338 4.44772 4.21338 5Z" fill="#131314"/>
<path d="M16.2134 1C16.2134 1.55228 15.7657 2 15.2134 2C14.6611 2 14.2134 1.55228 14.2134 1C14.2134 0.447715 14.6611 0 15.2134 0C15.7657 0 16.2134 0.447715 16.2134 1Z" fill="#131314"/>
<path d="M27.2134 5C27.2134 5.55228 26.7657 6 26.2134 6C25.6611 6 25.2134 5.55228 25.2134 5C25.2134 4.44772 25.6611 4 26.2134 4C26.7657 4 27.2134 4.44772 27.2134 5Z" fill="#131314"/>
</svg>
