<svg width="24" height="24" viewBox="0 0 24 24" fill="none" xmlns="http://www.w3.org/2000/svg">
<path d="M18.5078 20C19.3358 20 20.0078 19.328 20.0078 18.5V6.719C19.7108 6.893 19.3688 7 18.9998 7H4.99979C4.63379 7 4.29479 6.895 3.99979 6.723V18.5C3.99979 19.328 4.67179 20 5.49979 20H18.5078ZM4.99979 4C4.44679 4 3.99979 4.448 3.99979 5C3.99979 5.552 4.44679 6 4.99979 6H18.9998C19.5528 6 19.9998 5.552 19.9998 5C19.9998 4.448 19.5528 4 18.9998 4H4.99979ZM20.9908 4.912C20.9958 4.939 21.0078 4.964 21.0078 4.992V18.5C21.0078 19.881 19.8878 21 18.5078 21H5.49979C4.11879 21 2.99979 19.881 2.99979 18.5V5C2.99979 3.896 3.89579 3 4.99979 3H18.9998C20.0738 3 20.9448 3.849 20.9908 4.912ZM16.5 8C16.776 8 17 8.224 17 8.5C17 8.776 16.776 9 16.5 9H16C16 11.209 14.209 13 12 13C9.79099 13 7.99999 11.209 7.99999 9H7.49999C7.22399 9 6.99999 8.776 6.99999 8.5C6.99999 8.224 7.22399 8 7.49999 8H9.49999C9.77599 8 9.99999 8.224 9.99999 8.5C9.99999 8.776 9.77599 9 9.49999 9H8.99999C8.99999 10.657 10.343 12 12 12C13.657 12 15 10.657 15 9H14.5C14.224 9 14 8.776 14 8.5C14 8.224 14.224 8 14.5 8H16.5Z" fill="#131314"/>
</svg>
