<svg width="16" height="16" viewBox="0 0 16 16" fill="none" xmlns="http://www.w3.org/2000/svg">
<g clip-path="url(#clip0_302_1119)">
<path d="M15.977 6.16384C15.9219 5.99409 15.7752 5.87044 15.5987 5.84479L10.6386 5.12404L8.42035 0.629447C8.3414 0.469445 8.17845 0.368164 8.00005 0.368164C7.8216 0.368164 7.65865 0.469445 7.5797 0.629447L5.3613 5.12404L0.401338 5.84479C0.224808 5.87044 0.0780895 5.99409 0.0229646 6.16379C-0.0321915 6.33354 0.0138083 6.51979 0.141589 6.64434L3.73058 10.1429L2.88346 15.0829C2.85327 15.2588 2.92558 15.4365 3.06992 15.5414C3.15158 15.6007 3.2483 15.6309 3.34548 15.6309C3.4201 15.6309 3.49498 15.6131 3.56354 15.5771L8 13.2446L12.4362 15.577C12.5942 15.6601 12.7856 15.6463 12.9299 15.5414C13.0743 15.4365 13.1466 15.2588 13.1165 15.0829L12.269 10.1429L15.8584 6.64429C15.9862 6.51979 16.0322 6.33354 15.977 6.16384Z" fill="#FF8730"/>
</g>
<defs>
<clipPath id="clip0_302_1119">
<rect width="16" height="16" fill="white"/>
</clipPath>
</defs>
</svg>
