<svg width="63" height="75" viewBox="0 0 63 75" fill="none" xmlns="http://www.w3.org/2000/svg">
<path d="M45.0495 73.3688C44.4953 73.3688 43.9541 73.152 43.5466 72.7576C43.0478 72.2713 42.8229 71.6009 42.9239 70.9141C43.0608 69.9874 42.9663 69.1166 42.6371 68.3213C41.9166 66.5764 39.6998 65.4756 37.3493 64.309C35.7421 63.5104 34.0763 62.6823 32.8082 61.5848C31.289 60.2703 30.5653 58.7587 30.5946 56.9645C30.6109 55.9753 30.9076 55.0947 31.4781 54.3487C31.9703 53.7046 32.6549 53.1624 33.5743 52.6925C35.1749 51.871 37.1928 51.4208 39.1423 50.987C41.9948 50.3495 44.6876 49.7514 44.6876 48.2267C44.6876 46.6066 43.4455 45.8475 41.4211 44.7434C38.9761 43.4092 35.9312 41.7497 36.4039 37.0768C36.7006 34.1291 39.0217 31.5068 43.3021 29.2788C44.6452 28.5789 46.223 28.5099 47.6346 29.0882C49.7471 29.9492 51.7227 31.1191 53.5026 32.5682C55.2695 34.0043 56.8181 35.6868 58.1025 37.573C60.7692 41.4835 62.1775 46.0677 62.1775 50.8326C62.1775 53.4352 61.7569 55.9951 60.9289 58.4334C60.1269 60.7928 58.9599 63.0011 57.457 64.9958C55.9704 66.9675 54.1938 68.6861 52.1791 70.0991C50.1318 71.5319 47.8889 72.6163 45.5059 73.3261C45.483 73.3327 45.4602 73.3393 45.4374 73.3426C45.307 73.359 45.1766 73.3688 45.0495 73.3688ZM45.6721 30.0708C45.0723 30.0708 44.4757 30.2121 43.9313 30.498C40.0845 32.4992 38.0111 34.7601 37.7634 37.2148C37.3852 40.9774 39.6607 42.2196 42.0731 43.5373C43.0641 44.0763 43.9997 44.5889 44.7332 45.279C45.6232 46.1137 46.0535 47.0798 46.0535 48.2299C46.0535 48.897 45.8253 49.4918 45.3755 49.9979C45.0071 50.4152 44.492 50.7701 43.8009 51.0823C42.6142 51.6212 41.0722 51.9663 39.439 52.331C35.7845 53.146 32.0062 53.9905 31.9606 56.9908C31.9117 60.0764 34.8489 61.5355 37.9557 63.08C40.4268 64.309 42.9794 65.5774 43.8987 67.7956C44.3225 68.8241 44.4496 69.9414 44.2768 71.1211C44.241 71.3643 44.3225 71.6009 44.4985 71.7751C44.6778 71.9492 44.919 72.0281 45.1603 71.992C54.3828 69.2349 60.8181 60.5398 60.8181 50.8293C60.8181 41.7858 55.4423 33.7512 47.1261 30.36C46.6566 30.1661 46.1611 30.0708 45.6721 30.0708Z" fill="#131314"/>
<path d="M22.8478 74.2293C22.7533 74.2293 22.6555 74.226 22.561 74.2194C22.248 74.1997 21.9318 74.1734 21.6188 74.1405C10.851 73.0233 2.1664 64.3479 0.969977 53.5069C0.591817 50.0795 0.930857 46.7079 1.98058 43.4941C2.98466 40.415 4.58858 37.6218 6.74344 35.1933C7.8062 33.9939 8.9961 32.9029 10.2805 31.9499C11.5748 30.9871 12.9668 30.159 14.4273 29.4886C17.4656 28.0887 20.7158 27.3789 24.0801 27.3789C24.7321 27.3789 25.3874 27.4052 26.0329 27.4611C26.5251 27.5038 26.975 27.7502 27.2749 28.1413C27.5683 28.5291 27.6889 29.0253 27.6009 29.505C27.5064 30.0242 27.1869 30.4679 26.7207 30.7209C23.1543 32.6663 21.2244 34.8516 20.9864 37.2077C20.6082 40.9703 22.8837 42.2125 25.2961 43.5302C26.2871 44.0692 27.2228 44.5818 27.9563 45.2719C28.8462 46.1066 29.2766 47.0727 29.2766 48.2228C29.2766 48.8899 29.0484 49.4847 28.5985 49.9908C28.2301 50.4081 27.715 50.763 27.0239 51.0752C25.8373 51.6141 24.2953 51.9592 22.662 52.3239C19.0076 53.1389 15.2292 53.9834 15.1836 56.9837C15.1347 60.0693 18.0719 61.5284 21.1787 63.0729C23.6433 64.2986 26.1926 65.5637 27.1152 67.7753C27.2228 68.0086 28.0638 69.9606 27.0532 71.6924C26.1274 73.2763 24.5365 74.2293 22.8478 74.2293ZM24.0834 28.7558C17.8633 28.7558 11.9138 31.4373 7.76382 36.1134C3.55516 40.852 1.62524 46.9774 2.3294 53.3591C3.4541 63.5592 11.6269 71.7285 21.7623 72.7801C22.0589 72.8097 22.3556 72.8359 22.6522 72.8557C23.9269 72.9378 25.169 72.228 25.8829 71.0023C26.5642 69.839 25.8894 68.3734 25.8829 68.3602C25.8764 68.3471 25.8731 68.3405 25.8699 68.3274C25.1494 66.5824 22.9326 65.4816 20.5821 64.315C18.975 63.5165 17.3091 62.6884 16.041 61.5908C14.5218 60.2764 13.7981 58.7647 13.8274 56.9705C13.8437 55.9814 14.1404 55.1007 14.7109 54.3547C15.2031 53.7107 15.8877 53.1685 16.8071 52.6985C18.4077 51.877 20.4257 51.4268 22.3751 50.993C25.2276 50.3555 27.9204 49.7575 27.9204 48.2327C27.9204 46.6126 26.6783 45.8535 24.6539 44.7494C22.2089 43.4152 19.164 41.7557 19.6367 37.0828C19.9236 34.2469 22.0915 31.7035 26.0785 29.528C26.1796 29.4722 26.248 29.3802 26.2676 29.275C26.2937 29.137 26.235 29.0384 26.1991 28.9924C26.16 28.9431 26.0752 28.8577 25.9253 28.8445C25.3157 28.7788 24.6963 28.7558 24.0834 28.7558Z" fill="#131314"/>
<path d="M16.0313 32.6431C15.7151 32.6431 15.4348 32.4229 15.3663 32.0976C15.2881 31.7263 15.5228 31.3615 15.8912 31.2826C17.0256 31.0395 17.8504 30.0142 17.8504 28.8443C17.8504 27.4707 16.742 26.3502 15.3761 26.3502C14.0134 26.3502 12.9017 27.4674 12.9017 28.8443C12.9017 29.449 13.1202 30.0339 13.5146 30.4874C13.7624 30.7733 13.7363 31.2071 13.4527 31.4568C13.1691 31.7066 12.7387 31.6803 12.491 31.3944C11.8781 30.6879 11.5391 29.7842 11.5391 28.8443C11.5391 26.7116 13.2603 24.9766 15.3761 24.9766C17.4918 24.9766 19.2131 26.7116 19.2131 28.8443C19.2131 29.7349 18.9034 30.6057 18.3459 31.2958C17.795 31.976 17.0224 32.4492 16.1748 32.63C16.1259 32.6398 16.077 32.6431 16.0313 32.6431Z" fill="#131314"/>
<path d="M46.9815 32.7121C46.6066 32.7121 46.3002 32.4032 46.3002 32.0253C46.3002 31.6474 46.6066 31.3385 46.9815 31.3385C48.3442 31.3385 49.4559 30.2212 49.4559 28.8443C49.4559 27.4707 48.3475 26.3502 46.9815 26.3502C45.6156 26.3502 44.5072 27.4674 44.5072 28.8443C44.5072 29.0481 44.53 29.2485 44.5789 29.4424C44.6702 29.8105 44.4453 30.1818 44.0801 30.2738C43.715 30.3658 43.3467 30.1391 43.2554 29.771C43.1804 29.4687 43.1445 29.1565 43.1445 28.8443C43.1445 26.7116 44.8658 24.9766 46.9815 24.9766C49.0973 24.9766 50.8186 26.7116 50.8186 28.8443C50.8186 30.977 49.0973 32.7121 46.9815 32.7121Z" fill="#131314"/>
<path d="M48.7099 26.8045C48.6154 26.8045 48.5176 26.7847 48.4263 26.742C48.084 26.5843 47.9373 26.1735 48.0938 25.8318L59.6603 0.587704C59.8168 0.24266 60.2243 0.0947817 60.5633 0.252516C60.9056 0.41025 61.0523 0.821019 60.8958 1.16278L49.3293 26.4068C49.2152 26.6566 48.9675 26.8045 48.7099 26.8045Z" fill="#131314"/>
<path d="M45.3123 26.8511C45.0384 26.8511 44.7809 26.6835 44.6766 26.4107L34.9846 1.00893C34.8509 0.654028 35.0237 0.256406 35.3758 0.121675C35.7279 -0.0130565 36.1223 0.161108 36.256 0.516011L45.948 25.9211C46.0816 26.276 45.9089 26.6736 45.5568 26.8083C45.4753 26.8346 45.3938 26.8511 45.3123 26.8511Z" fill="#131314"/>
<path d="M16.5843 26.5271C16.4898 26.5271 16.392 26.5074 16.2974 26.4647C15.9551 26.3069 15.8084 25.8962 15.9649 25.5544L27.4075 0.589657C27.564 0.244613 27.9715 0.0967348 28.3105 0.254469C28.6528 0.412203 28.7995 0.822972 28.643 1.16473L17.2004 26.1295C17.0896 26.3792 16.8418 26.5271 16.5843 26.5271Z" fill="#131314"/>
<path d="M13.104 26.9655C12.8302 26.9655 12.5726 26.7979 12.4683 26.5251L2.73069 1.00502C2.59703 0.650122 2.76981 0.2525 3.12189 0.117769C3.47397 -0.0169627 3.86843 0.157202 4.00209 0.512104L13.7397 26.0322C13.8734 26.3871 13.7006 26.7847 13.3485 26.9195C13.2703 26.9523 13.1855 26.9655 13.104 26.9655Z" fill="#131314"/>
</svg>
