<svg width="85" height="75" viewBox="0 0 85 75" fill="none" xmlns="http://www.w3.org/2000/svg">
<path d="M21.6451 28.5864C21.2744 28.5864 20.9727 28.2841 20.9727 27.9128C20.9727 26.296 21.2875 24.7285 21.9107 23.253C22.5143 21.8269 23.3736 20.5453 24.4724 19.4477C25.5712 18.3469 26.8471 17.4859 28.2707 16.8812C29.7434 16.2569 31.3112 15.9414 32.9217 15.9414C35.0242 15.9414 37.0939 16.4968 38.9044 17.5483C40.6592 18.567 42.1385 20.0261 43.1815 21.771C43.3718 22.0898 43.2701 22.5038 42.9519 22.6944C42.6338 22.885 42.2205 22.7831 42.0303 22.4644C40.1213 19.2735 36.6314 17.2887 32.925 17.2887C27.0767 17.2887 22.3175 22.0569 22.3175 27.9161C22.3142 28.2841 22.0157 28.5864 21.6451 28.5864Z" fill="#131314"/>
<path d="M34.1184 50.3101C33.9937 50.3101 33.8691 50.274 33.7543 50.2017C30.5727 48.1479 27.9192 45.6997 25.8692 42.9262C24.2259 40.7015 22.9631 38.2632 22.1201 35.6803C20.6802 31.2703 20.9557 27.9874 20.9688 27.8494C21.0016 27.4781 21.3296 27.2053 21.7003 27.2415C22.0709 27.2744 22.3432 27.603 22.3104 27.971C22.3071 28.0039 22.0512 31.1619 23.419 35.3221C24.6785 39.1504 27.624 44.6448 34.4824 49.0713C34.794 49.2717 34.8859 49.6891 34.6825 50.0012C34.5579 50.2017 34.3414 50.3101 34.1184 50.3101Z" fill="#131314"/>
<path d="M63.513 28.5864C63.1424 28.5864 62.8406 28.2841 62.8406 27.9128C62.8406 22.0536 58.0814 17.2854 52.2331 17.2854C48.5497 17.2854 45.1877 19.1552 43.2328 22.2869C43.036 22.6024 42.6227 22.6977 42.3078 22.5005C41.993 22.3034 41.8978 21.8893 42.0946 21.5738C43.1508 19.8848 44.6235 18.4717 46.3521 17.4892C48.1364 16.477 50.1733 15.9414 52.2364 15.9414C53.8502 15.9414 55.4147 16.2569 56.8874 16.8812C58.311 17.4859 59.5902 18.3469 60.6857 19.4477C61.7845 20.5486 62.6438 21.8269 63.2474 23.253C63.8706 24.7285 64.1854 26.2993 64.1854 27.9128C64.1854 28.2841 63.8837 28.5864 63.513 28.5864Z" fill="#131314"/>
<path d="M49.2359 21.0187C48.9735 21.0187 48.7275 20.8643 48.616 20.608C48.4717 20.2662 48.6291 19.8719 48.9702 19.724C50.0526 19.2639 51.2039 19.0273 52.3913 19.0273C52.7619 19.0273 53.0637 19.3297 53.0637 19.701C53.0637 20.0723 52.7619 20.3747 52.3913 20.3747C51.3876 20.3747 50.4134 20.5718 49.4983 20.9629C49.413 21.0023 49.3245 21.0187 49.2359 21.0187Z" fill="#131314"/>
<path d="M60.4686 28.4681C60.0979 28.4681 59.7962 28.1658 59.7962 27.7945C59.7962 24.7187 57.8642 21.9255 54.9877 20.8443C54.64 20.7129 54.4629 20.3251 54.5941 19.9768C54.7253 19.6285 55.1123 19.451 55.46 19.5824C57.1099 20.2035 58.5235 21.2945 59.5436 22.7437C60.5867 24.2257 61.141 25.9707 61.141 27.7912C61.141 28.1658 60.8392 28.4681 60.4686 28.4681Z" fill="#131314"/>
<path d="M50.3207 50.7598C50.0944 50.7598 49.8746 50.6448 49.7467 50.4378C49.5532 50.119 49.6548 49.705 49.9697 49.5111C57.212 45.0814 60.3247 39.4687 61.6596 35.5417C63.1127 31.2731 62.8437 28.0034 62.8437 27.9705C62.8109 27.5992 63.0832 27.2738 63.4538 27.241C63.8244 27.2081 64.1492 27.4809 64.182 27.8489C64.1951 27.9902 64.4804 31.3848 62.9552 35.9098C62.0631 38.5584 60.7281 41.0493 58.993 43.3134C56.8282 46.1362 54.0271 48.6074 50.6717 50.6612C50.5601 50.7302 50.4388 50.7598 50.3207 50.7598Z" fill="#131314"/>
<path d="M38.4185 9.39433C38.0479 9.39433 37.7461 9.092 37.7461 8.72067C37.7461 7.19591 38.9827 5.95703 40.5046 5.95703C41.4689 5.95703 42.3742 6.47295 42.8695 7.30106C43.0597 7.61981 42.958 8.03387 42.6399 8.22446C42.3217 8.41506 41.9084 8.31319 41.7182 7.99443C41.4591 7.56395 41.0064 7.30434 40.5046 7.30434C39.7239 7.30434 39.0909 7.93857 39.0909 8.72067C39.0909 9.092 38.7891 9.39433 38.4185 9.39433Z" fill="#131314"/>
<path d="M42.2879 14.169C42.2124 14.169 42.137 14.1559 42.0615 14.1296C39.6835 13.2785 38.6339 11.8622 38.1747 10.8205C37.6729 9.68676 37.7385 8.76007 37.7483 8.6582L39.0866 8.77979V8.77322C39.0767 8.88823 38.9193 11.573 42.5142 12.8579C42.8651 12.9827 43.0455 13.3672 42.9209 13.7188C42.8225 13.9982 42.5634 14.169 42.2879 14.169Z" fill="#131314"/>
<path d="M46.158 9.39494C45.7874 9.39494 45.4856 9.09262 45.4856 8.72129C45.4856 7.93919 44.8526 7.30496 44.072 7.30496C43.58 7.30496 43.1339 7.55471 42.8715 7.97205C42.6747 8.28752 42.2614 8.38281 41.9465 8.18565C41.6316 7.98848 41.5365 7.57443 41.7333 7.25896C42.2417 6.444 43.1142 5.96094 44.072 5.96094C45.5939 5.96094 46.8304 7.19981 46.8304 8.72457C46.8272 9.09262 46.5287 9.39494 46.158 9.39494Z" fill="#131314"/>
<path d="M42.2858 14.1697C42.0102 14.1697 41.7511 13.9988 41.6527 13.7228C41.5281 13.3711 41.7085 12.9867 42.0594 12.8618C45.6543 11.5736 45.4969 8.88885 45.487 8.77712V8.78369L46.8253 8.66211C46.8351 8.76398 46.9007 9.69067 46.3989 10.8244C45.9364 11.8628 44.8901 13.2824 42.5121 14.1335C42.4366 14.1565 42.3612 14.1697 42.2858 14.1697Z" fill="#131314"/>
<path d="M49.4302 2.90457C49.0595 2.90457 48.7578 2.60225 48.7578 2.23091C48.7578 1.02162 49.7385 0.0390625 50.9455 0.0390625C51.7098 0.0390625 52.4281 0.446544 52.8217 1.10377C53.0119 1.42252 52.9102 1.83658 52.5921 2.02717C52.2739 2.21777 51.8606 2.1159 51.6704 1.79714C51.5162 1.54082 51.2473 1.38638 50.9455 1.38638C50.4798 1.38638 50.1026 1.76428 50.1026 2.23091C50.1026 2.60553 49.8008 2.90457 49.4302 2.90457Z" fill="#131314"/>
<path d="M52.2399 6.37484C52.1645 6.37484 52.089 6.36169 52.0136 6.3354C50.226 5.69461 49.4322 4.62333 49.0846 3.83466C48.7008 2.96712 48.7533 2.25074 48.7598 2.17188L50.0981 2.29346V2.28689C50.0915 2.36247 49.9964 4.18299 52.4662 5.06696C52.8172 5.19183 52.9976 5.57631 52.873 5.92792C52.7746 6.20396 52.5187 6.37484 52.2399 6.37484Z" fill="#131314"/>
<path d="M55.0509 2.90457C54.6802 2.90457 54.3785 2.60225 54.3785 2.23091C54.3785 1.76428 54.0013 1.38638 53.5355 1.38638C53.2436 1.38638 52.9746 1.53425 52.8205 1.784C52.6237 2.09947 52.2104 2.19476 51.8955 1.9976C51.5806 1.80043 51.4855 1.38638 51.6823 1.07091C52.0857 0.426827 52.7778 0.0390625 53.5388 0.0390625C54.7458 0.0390625 55.7265 1.02162 55.7265 2.23091C55.7232 2.60553 55.4215 2.90457 55.0509 2.90457Z" fill="#131314"/>
<path d="M52.2369 6.37546C51.9613 6.37546 51.7022 6.20458 51.6038 5.92855C51.4792 5.57693 51.6596 5.19245 52.0105 5.06758C54.5197 4.17046 54.382 2.3138 54.3787 2.29408C54.3459 1.92275 54.6181 1.59742 54.9855 1.56128C55.3561 1.52842 55.6809 1.80117 55.7169 2.16921C55.7235 2.24808 55.776 2.96445 55.3922 3.83199C55.0413 4.62066 54.2508 5.69194 52.4632 6.33274C52.391 6.36231 52.3123 6.37546 52.2369 6.37546Z" fill="#131314"/>
<path d="M28.9048 2.90457C28.5342 2.90457 28.2324 2.60225 28.2324 2.23091C28.2324 1.02162 29.2131 0.0390625 30.4202 0.0390625C31.1844 0.0390625 31.9027 0.446544 32.2963 1.10377C32.4866 1.42252 32.3849 1.83658 32.0667 2.02717C31.7486 2.21777 31.3353 2.1159 31.1451 1.79714C30.9909 1.54082 30.7219 1.38638 30.4202 1.38638C29.9544 1.38638 29.5772 1.76428 29.5772 2.23091C29.5772 2.60553 29.2755 2.90457 28.9048 2.90457Z" fill="#131314"/>
<path d="M31.7146 6.37484C31.6392 6.37484 31.5637 6.36169 31.4883 6.3354C29.7007 5.69461 28.9069 4.62333 28.5592 3.83466C28.1755 2.96712 28.228 2.25074 28.2345 2.17188L29.5728 2.29346V2.28689C29.5662 2.36247 29.4711 4.18299 31.9409 5.06696C32.2919 5.19183 32.4723 5.57631 32.3476 5.92792C32.2492 6.20396 31.9901 6.37484 31.7146 6.37484Z" fill="#131314"/>
<path d="M34.5256 2.90457C34.1549 2.90457 33.8532 2.60225 33.8532 2.23091C33.8532 1.76428 33.476 1.38638 33.0102 1.38638C32.7183 1.38638 32.4493 1.53425 32.2952 1.784C32.0984 2.09947 31.6851 2.19476 31.3702 1.9976C31.0553 1.80043 30.9602 1.38638 31.157 1.07091C31.5605 0.426827 32.2525 0.0390625 33.0135 0.0390625C34.2205 0.0390625 35.2013 1.02162 35.2013 2.23091C35.198 2.60553 34.8962 2.90457 34.5256 2.90457Z" fill="#131314"/>
<path d="M31.7115 6.37484C31.436 6.37484 31.1769 6.20396 31.0785 5.92792C30.9539 5.57631 31.1343 5.19183 31.4852 5.06696C33.9551 4.18299 33.8599 2.36247 33.8534 2.28689V2.29346L35.1916 2.17188C35.1982 2.25074 35.2506 2.96712 34.8669 3.83466C34.5159 4.62333 33.7255 5.69461 31.9379 6.3354C31.8624 6.36169 31.787 6.37484 31.7115 6.37484Z" fill="#131314"/>
<path d="M17.5466 24.139C17.376 24.139 17.2022 24.0733 17.071 23.9418L12.0952 18.9568C11.8328 18.6939 11.8328 18.2667 12.0952 18.0038C12.3576 17.7409 12.784 17.7409 13.0464 18.0038L18.0222 22.9889C18.2846 23.2518 18.2846 23.679 18.0222 23.9418C17.891 24.0733 17.7204 24.139 17.5466 24.139Z" fill="#131314"/>
<path d="M12.5708 40.9691C12.4003 40.9691 12.2264 40.9034 12.0952 40.7719C11.8328 40.509 11.8328 40.0818 12.0952 39.819L17.071 34.8339C17.3334 34.571 17.7598 34.571 18.0222 34.8339C18.2846 35.0968 18.2846 35.524 18.0222 35.7869L13.0464 40.7719C12.9152 40.9034 12.7447 40.9691 12.5708 40.9691Z" fill="#131314"/>
<path d="M15.5567 30.5075H9.50834C9.1377 30.5075 8.83594 30.2051 8.83594 29.8338C8.83594 29.4625 9.1377 29.1602 9.50834 29.1602H15.5567C15.9273 29.1602 16.2291 29.4625 16.2291 29.8338C16.2291 30.2051 15.9273 30.5075 15.5567 30.5075Z" fill="#131314"/>
<path d="M67.313 24.139C67.1425 24.139 66.9686 24.0733 66.8374 23.9418C66.575 23.679 66.575 23.2518 66.8374 22.9889L71.8132 18.0038C72.0756 17.7409 72.502 17.7409 72.7644 18.0038C73.0268 18.2667 73.0268 18.6939 72.7644 18.9568L67.7886 23.9418C67.6574 24.0733 67.4836 24.139 67.313 24.139Z" fill="#131314"/>
<path d="M72.2888 40.9691C72.1182 40.9691 71.9444 40.9034 71.8132 40.7719L66.8374 35.7869C66.575 35.524 66.575 35.0968 66.8374 34.8339C67.0998 34.571 67.5262 34.571 67.7886 34.8339L72.7644 39.819C73.0268 40.0818 73.0268 40.509 72.7644 40.7719C72.6332 40.9034 72.4626 40.9691 72.2888 40.9691Z" fill="#131314"/>
<path d="M75.3613 30.5075H69.313C68.9424 30.5075 68.6406 30.2051 68.6406 29.8338C68.6406 29.4625 68.9424 29.1602 69.313 29.1602H75.3613C75.732 29.1602 76.0337 29.4625 76.0337 29.8338C76.0337 30.2051 75.732 30.5075 75.3613 30.5075Z" fill="#131314"/>
<path d="M38.8401 74.0898C36.0095 74.0898 33.228 73.9879 30.5286 73.7842C27.1994 73.5345 23.9817 73.127 20.9641 72.5815C15.8112 71.6449 13.0626 70.6262 12.9478 70.5835C12.9445 70.5835 12.9412 70.5802 12.9412 70.5802L9.03477 69.0588C8.69037 68.924 8.51653 68.533 8.65101 68.1879C8.78549 67.8429 9.17581 67.6687 9.52021 67.8035L13.4201 69.3216C13.5284 69.3611 16.2737 70.3601 21.2495 71.2605C25.9104 72.105 33.5364 73.0317 43.4026 72.6505C46.3841 72.5355 49.3033 71.806 52.0815 70.4751L80.6896 56.3414C82.4772 55.4575 83.2152 53.282 82.3395 51.4911C81.5424 49.8612 79.6466 49.0725 77.9312 49.6509L53.0556 58.2638C52.7047 58.3854 52.3209 58.1981 52.1996 57.8465C52.0782 57.4949 52.2652 57.1104 52.6161 56.9888L77.4916 48.3758H77.4949C78.6364 47.9881 79.8795 48.0308 80.9914 48.4974C82.1033 48.9608 83.0086 49.8152 83.54 50.8996C84.1238 52.0892 84.2091 53.4365 83.7827 54.6951C83.3563 55.9504 82.4674 56.9658 81.28 57.5507L52.6686 71.6844C52.6653 71.6844 52.662 71.6877 52.662 71.6877C49.7166 73.0974 46.617 73.8729 43.4518 73.9945C41.9069 74.0602 40.3686 74.0898 38.8401 74.0898Z" fill="#131314"/>
<path d="M30.6409 63.0829C30.4179 63.0829 30.2014 62.9712 30.0735 62.7707C29.8734 62.4586 29.9653 62.0412 30.2801 61.8408L31.1034 61.3183C33.0124 60.0991 35.2198 59.4583 37.483 59.4583H48.3628C50.7703 59.4583 52.7317 57.4965 52.7317 55.0812C52.7317 52.6659 50.7736 50.7041 48.3628 50.7041H30.6409C30.4933 50.7041 30.3523 50.6548 30.2342 50.5661C26.1998 47.4935 20.8304 47.1485 17.0322 47.3982C12.8764 47.671 9.67189 48.6962 9.63909 48.7061C9.28485 48.8211 8.90765 48.6272 8.79285 48.2723C8.67805 47.9174 8.87157 47.5395 9.22581 47.4245C9.36357 47.3818 12.6239 46.3401 16.9436 46.0542C19.4922 45.8866 21.8735 46.0213 24.0284 46.4518C26.6656 46.9809 28.9616 47.9569 30.864 49.3568H48.3595C51.5083 49.3568 54.07 51.9232 54.07 55.0779C54.07 58.2326 51.5083 60.7991 48.3595 60.7991H37.4797C35.4724 60.7991 33.5142 61.3709 31.8217 62.4487L30.9984 62.9712C30.8902 63.0468 30.7656 63.0829 30.6409 63.0829Z" fill="#131314"/>
<path d="M12.26 74.2683H1.44584C1.0752 74.2683 0.773438 73.9659 0.773438 73.5946C0.773438 73.2233 1.0752 72.921 1.44584 72.921H11.791C12.1354 71.945 12.447 70.9493 12.7126 69.9602C12.811 69.602 13.1784 69.3884 13.5359 69.4869C13.8934 69.5855 14.1066 69.9536 14.0082 70.3118C13.6901 71.4882 13.3129 72.6712 12.8898 73.8246C12.7946 74.0941 12.5421 74.2683 12.26 74.2683Z" fill="#131314"/>
<path d="M12.7877 47.4429C12.4564 47.4429 12.1677 47.1997 12.1218 46.8613C11.9513 45.6224 11.0722 42.8916 11.0624 42.8653C10.9476 42.5104 11.1411 42.1325 11.4953 42.0175C11.8496 41.9025 12.2268 42.0964 12.3416 42.4513C12.3777 42.5696 13.2665 45.3266 13.4535 46.6805C13.5027 47.0486 13.2469 47.3871 12.8795 47.4396C12.85 47.4396 12.8205 47.4429 12.7877 47.4429Z" fill="#131314"/>
<path d="M11.5253 43.2985H1.44584C1.0752 43.2985 0.773438 42.9962 0.773438 42.6248C0.773438 42.2535 1.0752 41.9512 1.44584 41.9512H11.5253C11.8959 41.9512 12.1977 42.2535 12.1977 42.6248C12.1977 42.9962 11.8959 43.2985 11.5253 43.2985Z" fill="#131314"/>
<path d="M7.13234 74.1127C6.92242 74.1127 6.71906 74.0174 6.58786 73.8333C5.21354 71.9241 4.13114 69.6764 3.37346 67.1526C2.59282 64.55 2.19922 61.7798 2.19922 58.9176C2.19922 56.1112 2.58298 52.9565 3.2849 50.0385C4.03602 46.9101 5.07578 44.3107 6.29266 42.5198C6.50258 42.2109 6.91914 42.132 7.22746 42.3423C7.53578 42.5527 7.6145 42.97 7.40458 43.2789C5.16762 46.5683 3.5473 53.1439 3.5473 58.9176C3.5473 64.251 5.05282 69.4003 7.6801 73.0447C7.89658 73.347 7.83098 73.7676 7.52922 73.9845C7.40786 74.0699 7.2701 74.1127 7.13234 74.1127Z" fill="#131314"/>
<path d="M11.9097 74.1127C11.6998 74.1127 11.4964 74.0174 11.3652 73.8333C9.99088 71.9241 8.90848 69.6764 8.1508 67.1526C7.37016 64.55 6.97656 61.7798 6.97656 58.9176C6.97656 56.1112 7.36032 52.9565 8.06224 50.0385C8.81336 46.9101 9.85312 44.3107 11.07 42.5198C11.2799 42.2109 11.6965 42.132 12.0048 42.3423C12.3131 42.5527 12.3918 42.97 12.1819 43.2789C9.94497 46.565 8.32464 53.1439 8.32464 58.9176C8.32464 64.251 9.83016 69.4003 12.4574 73.0447C12.6739 73.347 12.6083 73.7676 12.3066 73.9845C12.1852 74.0699 12.0474 74.1127 11.9097 74.1127Z" fill="#131314"/>
</svg>
