<svg width="164" height="126" viewBox="0 0 164 126" fill="none" xmlns="http://www.w3.org/2000/svg">
<path d="M58.555 100.895C57.0194 100.895 55.5302 100.593 54.126 99.998C52.771 99.4248 51.5556 98.6021 50.5099 97.5544C49.4642 96.5068 48.6458 95.2891 48.0709 93.9316C47.4769 92.5247 47.1758 91.0328 47.1758 89.4943C47.1758 87.9557 47.4769 86.4638 48.0709 85.0569C48.643 83.6994 49.4642 82.4817 50.5099 81.4341C51.5556 80.3865 52.771 79.5665 54.126 78.9905C55.5302 78.3954 57.0194 78.0938 58.555 78.0938C60.0907 78.0938 61.5798 78.3954 62.9841 78.9905C64.3391 79.5637 65.5545 80.3865 66.6002 81.4341C67.6458 82.4817 68.4643 83.6994 69.0392 85.0569C69.6332 86.4638 69.9343 87.9557 69.9343 89.4943C69.9343 91.0328 69.6332 92.5247 69.0392 93.9316C68.467 95.2891 67.6458 96.5068 66.6002 97.5544C65.5545 98.6021 64.3391 99.4221 62.9841 99.998C61.5798 100.593 60.0907 100.895 58.555 100.895ZM58.555 79.6131C53.1159 79.6131 48.6923 84.0449 48.6923 89.4943C48.6923 94.9436 53.1159 99.3754 58.555 99.3754C63.9942 99.3754 68.4178 94.9436 68.4178 89.4943C68.4178 84.0449 63.9914 79.6131 58.555 79.6131Z" fill="#131314"/>
<path d="M58.5559 94.5329C55.7829 94.5329 53.5273 92.2731 53.5273 89.495C53.5273 86.7168 55.7829 84.457 58.5559 84.457C61.3288 84.457 63.5844 86.7168 63.5844 89.495C63.5844 92.2731 61.3288 94.5329 58.5559 94.5329ZM58.5559 85.9764C56.6178 85.9764 55.0438 87.556 55.0438 89.4977C55.0438 91.4394 56.6206 93.0191 58.5559 93.0191C60.4912 93.0191 62.0679 91.4394 62.0679 89.4977C62.0679 87.556 60.4939 85.9764 58.5559 85.9764Z" fill="#131314"/>
<path d="M104.657 100.895C103.121 100.895 101.632 100.593 100.228 99.998C98.8725 99.4248 97.6571 98.6021 96.6115 97.5544C95.5658 96.5068 94.7473 95.2891 94.1725 93.9316C93.5785 92.5247 93.2773 91.0328 93.2773 89.4943C93.2773 87.9557 93.5785 86.4638 94.1725 85.0569C94.7446 83.6994 95.5658 82.4817 96.6115 81.4341C97.6571 80.3865 98.8725 79.5665 100.228 78.9905C101.632 78.3954 103.121 78.0938 104.657 78.0938C106.192 78.0938 107.681 78.3954 109.086 78.9905C110.441 79.5637 111.656 80.3865 112.702 81.4341C113.747 82.4817 114.566 83.6994 115.141 85.0569C115.735 86.4638 116.036 87.9557 116.036 89.4943C116.036 91.0328 115.735 92.5247 115.141 93.9316C114.569 95.2891 113.747 96.5068 112.702 97.5544C111.656 98.6021 110.441 99.4221 109.086 99.998C107.681 100.593 106.192 100.895 104.657 100.895ZM104.657 79.6131C99.2174 79.6131 94.7938 84.0449 94.7938 89.4943C94.7938 94.9436 99.2174 99.3754 104.657 99.3754C110.096 99.3754 114.519 94.9436 114.519 89.4943C114.519 84.0449 110.096 79.6131 104.657 79.6131Z" fill="#131314"/>
<path d="M104.657 94.5329C101.884 94.5329 99.6289 92.2731 99.6289 89.495C99.6289 86.7168 101.884 84.457 104.657 84.457C107.43 84.457 109.686 86.7168 109.686 89.495C109.686 92.2731 107.43 94.5329 104.657 94.5329ZM104.657 85.9764C102.719 85.9764 101.143 87.556 101.143 89.4977C101.143 91.4394 102.719 93.0191 104.657 93.0191C106.596 93.0191 108.172 91.4394 108.172 89.4977C108.172 87.556 106.596 85.9764 104.657 85.9764Z" fill="#131314"/>
<path d="M104.821 58.9894C104.626 58.9894 104.432 58.9153 104.284 58.7672C103.989 58.471 103.989 57.9911 104.284 57.6922L111.834 50.1284C112.13 49.8322 112.609 49.8322 112.907 50.1284C113.203 50.4246 113.203 50.9045 112.907 51.2034L105.357 58.7672C105.209 58.9153 105.015 58.9894 104.821 58.9894Z" fill="#131314"/>
<path d="M109.965 58.1637C109.771 58.1637 109.577 58.0896 109.429 57.9416C109.133 57.6454 109.133 57.1654 109.429 56.8665L113.458 52.8296C113.754 52.5334 114.233 52.5334 114.531 52.8296C114.827 53.1258 114.827 53.6057 114.531 53.9046L110.502 57.9416C110.354 58.0896 110.16 58.1637 109.965 58.1637Z" fill="#131314"/>
<path d="M121.514 88.474H119.639C118.779 88.474 118.051 87.8625 117.904 87.0205C116.773 80.5702 111.202 75.8888 104.655 75.8888C102.457 75.8888 100.275 76.4345 98.345 77.463C97.7921 77.7592 97.1406 77.7427 96.6068 77.4191C96.0703 77.0955 95.75 76.5305 95.75 75.9025V48.2363C95.75 46.4235 97.2227 44.9453 99.0348 44.9453H111.085C112.798 44.9453 114.416 45.7818 115.41 47.1832L121.782 56.173C123.096 58.0242 123.789 60.2045 123.789 62.4753V77.8908C123.789 78.3104 123.449 78.6505 123.031 78.6505C122.612 78.6505 122.272 78.3104 122.272 77.8908V62.4753C122.272 60.5199 121.676 58.6468 120.545 57.0534L114.172 48.0635C113.464 47.0625 112.308 46.4646 111.082 46.4646H99.0321C98.0576 46.4646 97.2638 47.26 97.2638 48.2363V75.9052C97.2638 76.0286 97.3404 76.0945 97.3842 76.1191C97.428 76.1466 97.5211 76.1822 97.6306 76.1246C99.7794 74.9783 102.207 74.3722 104.655 74.3722C106.459 74.3722 108.221 74.6903 109.897 75.3183C111.515 75.9244 113.006 76.802 114.329 77.9264C116.995 80.1917 118.793 83.3291 119.395 86.76C119.415 86.8752 119.519 86.9602 119.639 86.9602H121.514C121.933 86.9602 122.272 86.6201 122.272 86.2005V81.6041C122.272 81.1845 122.612 80.8445 123.031 80.8445C123.449 80.8445 123.789 81.1845 123.789 81.6041V86.2005C123.789 87.4538 122.768 88.474 121.514 88.474Z" fill="#131314"/>
<path d="M123.019 62.7879H102.82C101.566 62.7879 100.545 61.765 100.545 60.5089V45.705C100.545 45.2854 100.884 44.9453 101.303 44.9453C101.722 44.9453 102.061 45.2854 102.061 45.705V60.5089C102.061 60.9285 102.401 61.2686 102.82 61.2686H123.019C123.438 61.2686 123.777 61.6087 123.777 62.0283C123.777 62.4479 123.438 62.7879 123.019 62.7879Z" fill="#131314"/>
<path d="M106.233 66.4568H101.645C101.226 66.4568 100.887 66.1168 100.887 65.6972C100.887 65.2776 101.226 64.9375 101.645 64.9375H106.233C106.652 64.9375 106.991 65.2776 106.991 65.6972C106.991 66.1168 106.652 66.4568 106.233 66.4568Z" fill="#131314"/>
<path d="M123.031 73.6272H117.222C115.968 73.6272 114.947 72.6043 114.947 71.3482V69.072C114.947 67.8159 115.968 66.793 117.222 66.793H123.031C123.45 66.793 123.789 67.133 123.789 67.5526C123.789 67.9722 123.45 68.3123 123.031 68.3123H117.222C116.803 68.3123 116.464 68.6524 116.464 69.072V71.351C116.464 71.7706 116.803 72.1107 117.222 72.1107H123.031C123.45 72.1107 123.789 72.4507 123.789 72.8703C123.789 73.2872 123.45 73.6272 123.031 73.6272Z" fill="#131314"/>
<path d="M125.095 82.3577H119.664C119.245 82.3577 118.906 82.0176 118.906 81.598C118.906 81.1784 119.245 80.8383 119.664 80.8383H124.337V78.6443H117.348C116.929 78.6443 116.59 78.3043 116.59 77.8847C116.59 77.4651 116.929 77.125 117.348 77.125H125.095C125.514 77.125 125.853 77.4651 125.853 77.8847V81.5953C125.85 82.0176 125.511 82.3577 125.095 82.3577Z" fill="#131314"/>
<path d="M96.5069 72.4158H91.2019C90.783 72.4158 90.4436 72.0758 90.4436 71.6562C90.4436 71.2366 90.783 70.8965 91.2019 70.8965H96.5069C96.9257 70.8965 97.2651 71.2366 97.2651 71.6562C97.2651 72.0758 96.9257 72.4158 96.5069 72.4158Z" fill="#131314"/>
<path d="M94.919 85.9959H88.2973C87.8785 85.9959 87.5391 85.6558 87.5391 85.2362C87.5391 84.8166 87.8785 84.4766 88.2973 84.4766H94.919C95.3378 84.4766 95.6773 84.8166 95.6773 85.2362C95.6773 85.6586 95.3378 85.9959 94.919 85.9959Z" fill="#131314"/>
<path d="M45.3551 89.8033H42.9544C41.7007 89.8033 40.6797 88.7804 40.6797 87.5243V81.3866C40.6797 80.967 41.0191 80.627 41.4379 80.627C41.8568 80.627 42.1962 80.967 42.1962 81.3866V87.5243C42.1962 87.9439 42.5356 88.284 42.9544 88.284H45.3551C45.7739 88.284 46.1134 88.624 46.1134 89.0436C46.1106 89.4632 45.7739 89.8033 45.3551 89.8033Z" fill="#131314"/>
<path d="M86.7833 89.8033H72.4477C72.0289 89.8033 71.6895 89.4632 71.6895 89.0436C71.6895 88.624 72.0289 88.284 72.4477 88.284H86.7833C87.2021 88.284 87.5416 87.9439 87.5416 87.5243V81.3866C87.5416 80.967 87.881 80.627 88.2998 80.627C88.7186 80.627 89.0581 80.967 89.0581 81.3866V87.5243C89.0553 88.7804 88.037 89.8033 86.7833 89.8033Z" fill="#131314"/>
<path d="M88.6771 82.1478H70.2355C69.9864 82.1478 69.7537 82.0272 69.6141 81.8215C67.0957 78.1849 62.9623 76.0156 58.5551 76.0156C54.148 76.0156 50.0145 78.1849 47.4962 81.8215C47.3538 82.0272 47.1211 82.1478 46.8748 82.1478H41.4411C39.6317 82.1478 38.1562 80.6724 38.1562 78.8568V70.8981C38.1562 69.6421 39.1773 68.6191 40.431 68.6191H89.69C90.9437 68.6191 91.9647 69.6421 91.9647 70.8981V78.8568C91.9592 80.6724 90.4865 82.1478 88.6771 82.1478ZM70.6269 80.6285H88.6771C89.6516 80.6285 90.4455 79.8332 90.4455 78.8568V70.8981C90.4455 70.4785 90.106 70.1385 89.6872 70.1385H40.4283C40.0094 70.1385 39.67 70.4785 39.67 70.8981V78.8568C39.67 79.8332 40.4639 80.6285 41.4384 80.6285H46.4833C47.8082 78.8239 49.5355 77.3183 51.5037 76.2624C53.658 75.1079 56.097 74.4963 58.5551 74.4963C61.0133 74.4963 63.4523 75.1079 65.6066 76.2624C67.5748 77.3183 69.302 78.8239 70.6269 80.6285Z" fill="#131314"/>
<path d="M87.8778 70.1409C87.4589 70.1409 87.1195 69.8008 87.1195 69.3812V67.1872C87.1195 66.7676 86.7801 66.4275 86.3612 66.4275H43.2942C42.8754 66.4275 42.536 66.7676 42.536 67.1872V69.3812C42.536 69.8008 42.1965 70.1409 41.7777 70.1409C41.3589 70.1409 41.0195 69.8008 41.0195 69.3812V67.1872C41.0195 65.9312 42.0405 64.9082 43.2942 64.9082H86.364C87.6177 64.9082 88.6387 65.9312 88.6387 67.1872V69.3812C88.636 69.8008 88.2966 70.1409 87.8778 70.1409Z" fill="#131314"/>
<path d="M85.86 28.4829C85.215 27.8367 84.3569 27.4805 83.4434 27.4805H46.0774C45.1638 27.4805 44.3058 27.8367 43.6607 28.4829C43.0157 29.1292 42.6602 29.9888 42.6602 30.9041V63.0274C42.6602 63.9427 43.0157 64.8023 43.6607 65.4486C44.3058 66.0948 45.1638 66.451 46.0774 66.451H83.4434C84.3569 66.451 85.215 66.0948 85.86 65.4486C86.5051 64.8023 86.8606 63.9427 86.8606 63.0274V30.9041C86.8606 29.9903 86.5051 29.1292 85.86 28.4829ZM60.4737 40.4911V28.8496H70.0428V40.4911L65.6685 37.2043C65.4255 37.0209 65.091 37.0209 64.848 37.2043L60.4737 40.4911ZM85.494 63.0274C85.494 64.1606 84.5744 65.0819 83.4434 65.0819H46.0774C44.9463 65.0819 44.0267 64.1606 44.0267 63.0274V30.9041C44.0267 29.7709 44.9463 28.8496 46.0774 28.8496H59.1056V40.4911C59.1056 41.0126 59.3951 41.483 59.8616 41.716C60.3282 41.9489 60.8757 41.8994 61.2927 41.5867L65.2575 38.608L69.2223 41.5867C69.4653 41.7686 69.7518 41.8618 70.0413 41.8618C70.2498 41.8618 70.4583 41.8137 70.6534 41.716C71.1199 41.483 71.4094 41.0126 71.4094 40.4911V28.8496H83.4434C84.5744 28.8496 85.494 29.7709 85.494 30.9041V63.0274Z" fill="#131314"/>
</svg>
